<svg height="64px" width="64px" version="1.1" id="_x32_" xmlns="http://www.w3.org/2000/svg" xmlns:xlink="http://www.w3.org/1999/xlink" viewBox="0 0 512 512" xml:space="preserve" fill="#000000"><g id="SVGRepo_bgCarrier" stroke-width="0"></g><g id="SVGRepo_tracerCarrier" stroke-linecap="round" stroke-linejoin="round"></g><g id="SVGRepo_iconCarrier"> <style type="text/css"> .st0{fill:#000000;} </style> <g> <path class="st0" d="M430.762,126.907c-42.384-89.329-67.753-89.329-78.722-89.329c-1.947,0-3.884,0.167-5.785,0.482 c-18.1,3.014-41.374,22.031-69.302,56.579h-20.955h-20.974c-27.909-34.548-51.202-53.566-69.301-56.579 c-1.891-0.315-3.829-0.482-5.758-0.482h-0.25c-11.108,0-36.412,0.649-78.499,89.329C34.188,164.608-32.49,256.506,18.091,366.094 c49.996,108.328,191.425,108.328,237.907,108.328c46.472,0,187.911,0,237.907-108.318 C544.495,256.506,477.809,164.608,430.762,126.907z M468.055,354.161c-41.15,89.134-161.411,91.776-212.056,91.776 c-50.626,0-170.906-2.642-212.038-91.776c-56.969-123.432,60.121-208.886,60.121-208.886s36.551-79.213,55.875-79.213l1.094,0.093 c18.99,3.162,60.14,56.969,60.14,56.969h34.808h34.808c0,0,41.15-53.807,60.14-56.969l1.094-0.093 c19.305,0,55.875,79.213,55.875,79.213S525.024,230.729,468.055,354.161z"></path> <polygon class="st0" points="78.008,314.355 181.746,322.524 182.488,313.057 78.75,304.897 "></polygon> <polygon class="st0" points="76.2,355.496 77.21,364.935 178.445,354.133 177.434,344.693 "></polygon> <polygon class="st0" points="330.269,322.524 433.988,314.355 433.247,304.897 329.527,313.057 "></polygon> <polygon class="st0" points="333.56,354.133 434.796,364.935 435.806,355.496 334.571,344.693 "></polygon> <path class="st0" d="M317.222,368.467c-7.983,1.91-14.715,2.708-20.324,2.708c-7.446,0-12.832-1.391-16.866-3.422 c-5.981-3.059-9.458-7.621-11.841-13.5c-2.327-5.832-3.171-12.851-3.162-19.157c0-3.95,0.333-7.427,0.695-10.329l16.718-16.718 c3.078-3.079,4.005-7.714,2.336-11.73c-1.669-4.024-5.582-6.648-9.94-6.648h-37.683c-4.45,0-8.437,2.745-10.032,6.899 c-1.614,4.154-0.482,8.864,2.819,11.85l16.096,14.576c0.464,3.115,0.927,7.325,0.918,12.118c0.045,8.438-1.531,18.016-5.954,24.581 c-2.216,3.32-5.016,6.018-9.04,8.057c-4.025,2.031-9.42,3.422-16.857,3.422c-5.601,0-12.341-0.798-20.326-2.716 c-4.339-1.039-8.697,1.641-9.736,5.971c-1.029,4.339,1.651,8.697,5.981,9.736c8.976,2.142,16.941,3.143,24.081,3.152 c9.448,0,17.496-1.808,24.126-5.146c7.779-3.895,13.222-9.866,16.857-16.347c0.52,0.918,0.853,1.864,1.428,2.763 c3.551,5.387,8.623,10.246,15.243,13.584c6.639,3.338,14.688,5.156,24.136,5.146c7.14,0,15.104-1.01,24.08-3.162 c4.339-1.038,7.009-5.387,5.972-9.726C325.911,370.1,321.553,367.43,317.222,368.467z"></path> <polygon class="st0" points="152.742,105.711 138.5,141.316 174.106,134.195 "></polygon> <polygon class="st0" points="359.254,105.711 337.891,134.195 373.496,141.316 "></polygon> <path class="st0" d="M146.011,241.809c0,13.983,11.349,25.323,25.332,25.323c13.982,0,25.313-11.34,25.313-25.323 c0-13.983-11.331-25.322-25.313-25.322C157.36,216.487,146.011,227.826,146.011,241.809z"></path> <path class="st0" d="M340.663,267.132c13.982,0,25.323-11.34,25.323-25.323c0-13.983-11.341-25.322-25.323-25.322 c-13.983,0-25.322,11.34-25.322,25.322C315.341,255.792,326.68,267.132,340.663,267.132z"></path> </g> </g></svg>