<svg width="64px" height="64px" viewBox="0 0 32 32" version="1.1" xmlns="http://www.w3.org/2000/svg" xmlns:xlink="http://www.w3.org/1999/xlink" fill="#000000"><g id="SVGRepo_bgCarrier" stroke-width="0"></g><g id="SVGRepo_tracerCarrier" stroke-linecap="round" stroke-linejoin="round"></g><g id="SVGRepo_iconCarrier"> <g id="icomoon-ignore"> </g> <path d="M16 2.672c-7.361 0-13.328 5.967-13.328 13.328s5.968 13.328 13.328 13.328c7.361 0 13.328-5.967 13.328-13.328s-5.967-13.328-13.328-13.328zM16 28.262c-6.761 0-12.262-5.501-12.262-12.262s5.5-12.262 12.262-12.262c6.761 0 12.262 5.501 12.262 12.262s-5.5 12.262-12.262 12.262z" fill="#26ba53"> </path> <path d="M22.667 11.241l-8.559 8.299-2.998-2.998c-0.312-0.312-0.818-0.312-1.131 0s-0.312 0.818 0 1.131l3.555 3.555c0.156 0.156 0.361 0.234 0.565 0.234 0.2 0 0.401-0.075 0.556-0.225l9.124-8.848c0.317-0.308 0.325-0.814 0.018-1.131-0.309-0.318-0.814-0.325-1.131-0.018z" fill="#26ba53"> </path> </g></svg>