<svg fill="#000000" height="64px" width="64px" version="1.1" id="Capa_1" xmlns="http://www.w3.org/2000/svg" xmlns:xlink="http://www.w3.org/1999/xlink" viewBox="0 0 433.139 433.139" xml:space="preserve"><g id="SVGRepo_bgCarrier" stroke-width="0"></g><g id="SVGRepo_tracerCarrier" stroke-linecap="round" stroke-linejoin="round"></g><g id="SVGRepo_iconCarrier"> <path id="XMLID_1136_" d="M111.946,275.714c0,11.68-5.616,22.702-15.024,29.483l-10.525-14.602c4.728-3.408,7.55-8.971,7.55-14.882 c0-10.019-7.949-18.17-17.72-18.17v-18C95.923,239.544,111.946,255.77,111.946,275.714z M76.227,122.785v18 c9.771,0,17.72,8.151,17.72,18.171c0,5.911-2.822,11.474-7.55,14.882l10.525,14.602c9.408-6.781,15.024-17.803,15.024-29.483 C111.946,139.011,95.923,122.785,76.227,122.785z M433.139,274.574c0,40.5-32.949,73.449-73.449,73.449 c-39.646,0-72.055-31.572-73.406-70.893H146.854c-1.352,39.321-33.761,70.893-73.406,70.893C32.949,348.023,0,315.074,0,274.574 c0-22.185,10.096-43.182,27.226-57.078v-1.853C10.096,201.749,0,180.75,0,158.565c0-40.5,32.949-73.449,73.448-73.449 c39.646,0,72.056,31.573,73.406,70.895h139.429c1.351-39.321,33.761-70.895,73.406-70.895c40.5,0,73.449,32.949,73.449,73.449 c0,22.186-10.096,43.184-27.227,57.079v1.852C423.043,231.391,433.139,252.389,433.139,274.574z M415.139,274.574 c0-17.95-8.759-34.874-23.431-45.272l-3.796-2.69v-20.084l3.796-2.69c14.672-10.397,23.431-27.321,23.431-45.272 c0-30.575-24.874-55.449-55.449-55.449s-55.45,24.875-55.45,55.449c0,10.202,2.793,20.171,8.077,28.829l-15.363,9.378 c-4.302-7.046-7.357-14.743-9.078-22.761H145.263c-1.72,8.019-4.776,15.715-9.077,22.761l-15.363-9.378 c5.283-8.657,8.076-18.625,8.076-28.829c0-30.575-24.875-55.449-55.45-55.449C42.874,103.116,18,127.99,18,158.565 c0,17.951,8.759,34.875,23.43,45.273l3.796,2.69v20.083l-3.796,2.69C26.759,239.7,18,256.624,18,274.574 c0,30.575,24.874,55.449,55.448,55.449c30.575,0,55.45-24.875,55.45-55.449c0-10.199-2.793-20.167-8.076-28.828l15.365-9.375 c4.3,7.046,7.355,14.743,9.075,22.759h142.613c1.72-8.015,4.774-15.711,9.073-22.758l15.367,9.374 c-5.284,8.662-8.077,18.63-8.077,28.828c0,30.575,24.875,55.449,55.45,55.449S415.139,305.148,415.139,274.574z M359.917,239.631v18 c9.77,0,17.717,8.152,17.717,18.171c0,5.911-2.822,11.474-7.55,14.881l10.525,14.602c9.408-6.781,15.024-17.803,15.024-29.483 C395.634,255.858,379.611,239.631,359.917,239.631z M377.634,159.044c0,5.911-2.822,11.474-7.55,14.881l10.525,14.603 c9.407-6.781,15.024-17.803,15.024-29.484c0-19.945-16.022-36.171-35.717-36.171v18 C369.687,140.873,377.634,149.024,377.634,159.044z"></path> </g></svg>