 <svg className="w-8 h-8 text-gray-900" fill="#000000" version="1.1" id="Capa_1" xmlns="http://www.w3.org/2000/svg" xmlnsXlink="http://www.w3.org/1999/xlink" width="64px" height="64px" viewBox="0 0 433.938 433.938" xmlSpace="preserve"><g id="SVGRepo_bgCarrier" strokeWidth="0"></g><g id="SVGRepo_tracerCarrier" strokeLinecap="round" strokeLinejoin="round"></g><g id="SVGRepo_iconCarrier"> <g> <g> <path d="M226.412,343.438c-0.686-7.562,0.238-15.813,2.198-22.196c0,0,3.067-31.996,40.969-50.43 c-0.37-3.128-0.599-5.94-0.756-8.333c-0.279-4.605,0.686-8.312,1.833-8.276c1.143,0.03,2.519,4.976,3.682,10.963 c1.168,6.124,3.143,14.284,6.327,23.019c16.965-21.942,43.497-36.13,73.392-36.13c1.346,0,2.666,0.138,4.002,0.193 c-2.347-6.784-4.921-13.284-7.684-18.865c-5.413-10.933-10.085-26.162-10.567-38.123c-0.472-11.986-8.622-13.398-14.873-5.253 c-6.271,8.15-23.907,11.532-36.038,10.189c-20.439-2.29-49.394-7.543-60.773-19.497c-12.327-12.949-32.923-50.671-45.159-74.156 c-5.634-10.816-0.033-24.113,4.73-35.33c4.426-10.364,6.005-27.167-2.953-53.964c-3.857-11.567-11.946-11.362-18.004-0.774 c-2.11,3.697-4.471,7.498-6.985,11.004c-7.071,9.93-21.195,14.322-27.294,14.322s-11.423-6.715-9.852-14.741 c1.595-8.033-4.699-14.14-16.757-12.332c-6.81,1.019-14.528,2.725-22.135,5.553c-11.43,4.25-17.473,19.317-10.46,27.192 c7.007,7.883,7.096,13.746-3.166,19.718c-10.263,5.982-13.439,13.249-9.377,13.249c4.068,0,6.942,2.26,6.444,5.058 c-0.513,2.803-10.925,4.415-22.894,6.762C24.986,96.044,0,107.602,0,142.076c0,0,1.833,28.771,24.466,48.354 c9.227,7.98,21.022,9.174,23.826,6.386c2.806-2.798,6.708-2.798,8.739,0c2.036,2.796,5.332,2.994,7.368,0.457 c2.023-2.536,2.435,1.376,0.909,8.737c-1.516,7.363,7.094,11.25,17.72,5.279c6.393-3.588,13.195-8.605,18.692-15.485 c7.592-9.542,7.751-9.953,4.725,1.848c-2.371,9.237-5.522,19.974-9.204,29.034c-4.614,11.288-5.197,26.064-0.198,37.186 c4.187,9.339,7.719,21.597,6.896,35.495c-1.041,17.91-3.618,41.848-5.624,59.047c-1.422,12.101-4.116,27.472-5.885,34.332 c-1.77,6.851,6.683,12.41,18.89,12.41h11.042c5.982,0,11.347,1.107,15.231,2.869c9.222-21.855,13.802-51.957,16.021-78.891 c-14.282-4.078-22.071-12.939-26.235-19.998c-3.095-5.26-3.46-10.603-2.275-11.222c1.186-0.609,4.621,3.239,8.919,7.551 c4.393,4.397,11.037,9.435,20.398,12.522c1.066-17.128,3.278-32.21,4.905-41.792c1.019-6.022,3.136-10.912,4.583-10.968 c1.445-0.036,2.772,4.859,2.795,10.968c0.175,27.792-1.444,100.59-21.749,142.122c2.663,4.088,10.775,7.069,20.637,7.069h23.904 c12.197,0,26.812-2.468,32.659-5.515c5.845-3.058,9.709-15.356,8.633-27.508L226.412,343.438z"></path> <path d="M271.474,282.649c-10.263,6.597-24.821,17.397-32.402,27.965c3.828,1.111,8.079,5.723,11.872,12.578 c2.828,5.134,6.297,10.521,10.323,15.224c1.077-15.498,5.937-29.92,13.686-42.392C273.53,291.419,272.321,286.89,271.474,282.649z "></path> <ellipse cx="318.521" cy="335.618" rx="4.199" ry="4.205"></ellipse> <path d="M400.606,340.595h-16.661c-0.889,0-1.625-0.727-1.625-1.625c0-0.899,0.736-1.631,1.625-1.631h15.488 c-0.579-7.251-7.176-9.906-12.893-9.906h-23.313c-1.102,0-2.112-0.544-2.717-1.468c-0.604-0.914-0.706-2.077-0.269-3.083 c0,0,1.462-4.285-0.234-16.503c-0.487-3.474-1.965-6.089-4.509-7.978c-0.64-0.467-1.249-0.701-1.833-0.701 c-1.904,0-4.113,2.58-4.113,5.922c0,3.438-0.025,7.403-0.122,11.582c-0.219,10.405-8.815,14.909-15.183,16.28v37.907l5.813,2.945 c0.279,0.152,0.523,0.314,0.752,0.528c3.214,3.011,12.675,6.235,21.632,6.235h20.846c5.926,0,11.004-4.108,12.466-9.75h-16.777 c-0.904,0-1.63-0.736-1.63-1.625c0-0.903,0.726-1.63,1.63-1.63h17.956c0.172-0.213,0.34-0.457,0.584-0.604 c1.614-1.106,3.336-3.366,3.422-5.225c0.057-1.447-1.376-4.154-2.346-5.53c-0.224-0.31-0.34-0.67-0.437-1.041h-15.935 c-0.899,0-1.625-0.731-1.625-1.62c0-0.903,0.726-1.63,1.625-1.63h16.925c0.243-0.213,0.482-0.457,0.797-0.584 c2.193-0.954,3.626-2.406,3.626-3.687c0-1.559-1.224-4.463-2.442-5.194C400.927,340.874,400.774,340.731,400.606,340.595z"></path> <path d="M354.447,266.405c-43.903,0-79.49,35.592-79.49,79.49c0,43.909,35.592,79.491,79.49,79.491 c43.904,0,79.491-35.587,79.491-79.491C433.938,301.997,398.352,266.405,354.447,266.405z M405.694,354.011 c0.919,1.848,1.813,4.25,1.727,6.54c-0.162,3.753-2.514,7.246-5.088,9.425c-1.833,9.014-9.79,15.635-19.058,15.635h-20.851 c-9.603,0-20.728-3.336-25.709-7.662l-7.206-3.667c-0.025-0.01-0.051-0.04-0.066-0.051c-1.736,3.245-4.763,5.424-8.221,5.424 h-5.429c-5.388,0-9.749-5.215-9.749-11.659v-34.978c0-6.438,4.372-11.653,9.749-11.653h5.434c3.225,0,6.063,1.884,7.841,4.768 c0.472-0.365,1.035-0.64,1.681-0.69c0.472-0.035,11.969-1.071,12.167-10.379c0.096-4.129,0.127-8.059,0.127-11.44 c0-6.739,4.85-12.426,10.617-12.426c1.976,0,3.951,0.68,5.703,1.975c3.981,2.945,6.367,7.094,7.084,12.314 c1.03,7.403,1.005,12.324,0.711,15.437h19.383c10.78,0,18.549,6.348,19.418,15.63c2.787,2.646,4.113,7.054,4.113,9.628 C410.066,349.166,408.478,351.938,405.694,354.011z"></path> </g> </g> </g></svg>