<svg fill="#000000" width="24apx" height="24apx" viewBox="-1.7 0 20.4 20.4" xmlns="http://www.w3.org/2000/svg" className="w-8 h-8 text-gray-500 group-hover:text-blue-600"><g id="SVGRepo_bgCarrier" strokeWidth="0"></g><g id="SVGRepo_tracerCarrier" strokeLinecap="round" strokeLinejoin="round"></g><g id="SVGRepo_iconCarrier"><path d="M16.416 10.283A7.917 7.917 0 1 1 8.5 2.366a7.916 7.916 0 0 1 7.916 7.917zm-2.958.01a.792.792 0 0 0-.792-.792H9.284V6.12a.792.792 0 1 0-1.583 0V9.5H4.32a.792.792 0 0 0 0 1.584H7.7v3.382a.792.792 0 0 0 1.583 0v-3.382h3.382a.792.792 0 0 0 .792-.791z"></path></g></svg>