<svg width="64px" height="64px" viewBox="0 0 24 24" fill="none" xmlns="http://www.w3.org/2000/svg"><g id="SVGRepo_bgCarrier" stroke-width="0"></g><g id="SVGRepo_tracerCarrier" stroke-linecap="round" stroke-linejoin="round"></g><g id="SVGRepo_iconCarrier"> <path fill-rule="evenodd" clip-rule="evenodd" d="M15 3C15 2.44772 15.4477 2 16 2H20C21.1046 2 22 2.89543 22 4V8C22 8.55229 21.5523 9 21 9C20.4477 9 20 8.55228 20 8V5.41288L15.4671 9.94579C15.4171 9.99582 15.363 10.0394 15.3061 10.0767C16.3674 11.4342 17 13.1432 17 15C17 19.4183 13.4183 23 9 23C4.58172 23 1 19.4183 1 15C1 10.5817 4.58172 7 9 7C10.8559 7 12.5642 7.63197 13.9214 8.69246C13.9587 8.63539 14.0024 8.58128 14.0525 8.53118L18.5836 4H16C15.4477 4 15 3.55228 15 3ZM9 20.9963C5.68831 20.9963 3.00365 18.3117 3.00365 15C3.00365 11.6883 5.68831 9.00365 9 9.00365C12.3117 9.00365 14.9963 11.6883 14.9963 15C14.9963 18.3117 12.3117 20.9963 9 20.9963Z" fill="#0F0F0F"></path> </g></svg>