<svg width="98.49" height="40" viewBox="0 0 98.49 40" xmlns="http://www.w3.org/2000/svg" fill="#0058a3"><path d="M98.48 40H0V0h98.49z"/><path fill="#ffdb00" d="M1.92 20c0 9.67 19.83 17.7 47.32 17.7 27.5 0 47.32-8.02 47.32-17.7S76.73 2.3 49.23 2.3 1.92 10.33 1.92 20Z"/><path d="M46.45 25.67c.31.46.65.88 1.04 1.26H36.84c0-.42-.4-1.28-.86-1.96-.47-.68-2.9-4.4-2.9-4.4v5.1c0 .43 0 .84.22 1.26h-8.88c.2-.42.2-.83.2-1.26v-12.1c0-.43 0-.84-.2-1.26h8.88c-.22.42-.22.83-.22 1.25v5.28s2.84-3.68 3.49-4.56c.5-.65 1.1-1.56 1.1-1.99h9.26a10.1 10.1 0 0 0-1.92 1.9l-3.39 4.13s4.27 6.52 4.83 7.35zm2.78-12.1v12.1c0 .43 0 .84-.21 1.26h17.13v-4.05c-.42.21-.83.21-1.25.21h-7.21v-1.92h6.93V18.1h-6.93v-1.91h7.2c.43 0 .84 0 1.26.2v-4.06H49.03c.2.41.2.82.2 1.24zm40.68 12.1c.14.47.38.9.69 1.26h-9.29c.04-.42-.11-.83-.28-1.26l-.34-.83-.08-.21h-5.35l-.09.21-.3.83c-.13.43-.29.84-.23 1.26H67.3c.3-.37.52-.79.66-1.26l4.4-12.1c.15-.43.3-.84.25-1.26H85c-.12.42.1.83.26 1.25l4.65 12.11zm-10.47-4.13-1.3-3.39a7.49 7.49 0 0 1-.29-.96c-.05.33-.15.65-.25.96-.04.14-.6 1.62-1.23 3.39zM20.2 12.3h-9.65c.2.42.2.83.2 1.25v12.11c0 .43 0 .84-.2 1.26h9.65c-.21-.42-.21-.83-.21-1.26v-12.1c0-.43 0-.85.21-1.26zm66.73 1.16a1.84 1.84 0 0 1 1.8-1.92h.12c1.05-.02 1.9.81 1.92 1.84v.08a1.92 1.92 0 1 1-3.85.1l.01-.1zm.39 0c0 .84.67 1.53 1.53 1.55.85 0 1.54-.68 1.56-1.54 0-.85-.68-1.54-1.54-1.55-.82-.03-1.51.6-1.54 1.42l-.01.12zm1.15 1.14h-.34v-2.3H89c.41.01.72.34.72.75 0 .28-.15.53-.4.67l.49.9h-.38l-.45-.83h-.5zm0-1.14h.47c.22 0 .42-.16.42-.39a.39.39 0 0 0-.38-.42h-.5z"/></svg>
