<svg width="20" height="20" viewBox="0 0 20 20" fill="none" xmlns="http://www.w3.org/2000/svg">
<path d="M6.00555 20C5.45504 20 4.9836 19.804 4.59124 19.412C4.19888 19.02 4.00303 18.5493 4.0037 18C4.0037 17.45 4.19988 16.979 4.59224 16.587C4.98461 16.195 5.45571 15.9993 6.00555 16C6.55606 16 7.02749 16.196 7.41986 16.588C7.81222 16.98 8.00807 17.4507 8.0074 18C8.0074 18.55 7.81122 19.021 7.41885 19.413C7.02649 19.805 6.55539 20.0007 6.00555 20ZM16.0148 20C15.4643 20 14.9929 19.804 14.6005 19.412C14.2081 19.02 14.0123 18.5493 14.0129 18C14.0129 17.45 14.2091 16.979 14.6015 16.587C14.9939 16.195 15.465 15.9993 16.0148 16C16.5653 16 17.0367 16.196 17.4291 16.588C17.8215 16.98 18.0173 17.4507 18.0166 18C18.0166 18.55 17.8205 19.021 17.4281 19.413C17.0357 19.805 16.5646 20.0007 16.0148 20ZM5.15476 4L7.55698 9H14.5635L17.316 4H5.15476ZM4.20388 2H18.9675C19.3512 2 19.6431 2.171 19.8433 2.513C20.0435 2.855 20.0519 3.20067 19.8684 3.55L16.3151 9.95C16.1316 10.2833 15.8853 10.5417 15.5764 10.725C15.2674 10.9083 14.9298 11 14.5635 11H7.10657L6.00555 13H18.0166V15H6.00555C5.25486 15 4.68766 14.6707 4.30398 14.012C3.92029 13.3533 3.90361 12.6993 4.25393 12.05L5.60518 9.6L2.00185 2H0V0H3.25301L4.20388 2Z" fill="#0F140F"/>
</svg>
