<svg width="35" height="32" viewBox="0 0 35 32" fill="none" xmlns="http://www.w3.org/2000/svg">
<path fill-rule="evenodd" clip-rule="evenodd" d="M18.3489 0.960334C18.1589 0.592347 17.767 0.359375 17.3379 0.359375C16.9088 0.359375 16.5169 0.592347 16.327 0.960334L11.7299 9.8679L1.45062 11.2963C1.02597 11.3553 0.673165 11.6397 0.540561 12.03C0.407956 12.4203 0.518546 12.8487 0.82583 13.1352L8.26402 20.0687L6.5081 29.8591C6.43556 30.2636 6.60942 30.6723 6.95658 30.9135C7.30375 31.1547 7.764 31.1865 8.14382 30.9956L17.3379 26.3732L26.532 30.9956C26.9119 31.1865 27.3721 31.1547 27.7193 30.9135C28.0664 30.6723 28.2403 30.2636 28.1678 29.8591L26.4118 20.0687L33.85 13.1352C34.1573 12.8487 34.2679 12.4203 34.1353 12.03C34.0027 11.6397 33.6499 11.3553 33.2252 11.2963L22.9459 9.8679L18.3489 0.960334Z" fill="#24292E"/>
</svg>
