<svg width="24" height="20" viewBox="0 0 24 20" fill="none" xmlns="http://www.w3.org/2000/svg">
<path fill-rule="evenodd" clip-rule="evenodd" d="M2.25 2C2.11193 2 2 2.11193 2 2.25V17.75C2 17.8881 2.11193 18 2.25 18H5.42803L13.9996 8.97728C14.6774 8.26383 15.81 8.24931 16.5058 8.94515L22 14.4393V2.25C22 2.11193 21.8881 2 21.75 2H2.25ZM5.74568 19.5H5.75408H21.75C22.7165 19.5 23.5 18.7165 23.5 17.75V16.2517V16.2483V2.25C23.5 1.2835 22.7165 0.5 21.75 0.5H2.25C1.2835 0.5 0.5 1.2835 0.5 2.25V17.75C0.5 18.7165 1.2835 19.5 2.25 19.5H5.74568ZM22 17.75V16.5607L15.4451 10.0058C15.3457 9.90641 15.1839 9.90848 15.0871 10.0104L7.497 18H21.75C21.8881 18 22 17.8881 22 17.75ZM9 7.25C9 8.2165 8.2165 9 7.25 9C6.2835 9 5.5 8.2165 5.5 7.25C5.5 6.2835 6.2835 5.5 7.25 5.5C8.2165 5.5 9 6.2835 9 7.25ZM10.5 7.25C10.5 9.04493 9.04493 10.5 7.25 10.5C5.45507 10.5 4 9.04493 4 7.25C4 5.45507 5.45507 4 7.25 4C9.04493 4 10.5 5.45507 10.5 7.25Z" fill="#24292E"/>
</svg>
