<svg width="20" height="20" viewBox="0 0 20 20" fill="none" xmlns="http://www.w3.org/2000/svg">
<path d="M7.72965 12.3991C7.50289 12.1016 7.07817 12.0422 6.77836 12.2671C6.48347 12.4882 6.4235 12.9337 6.6458 13.2266C6.66789 13.2549 6.69038 13.2827 6.71372 13.3099C6.75341 13.3563 6.80918 13.418 6.88111 13.4899C7.02465 13.6335 7.23478 13.8198 7.51237 14.0048C8.07019 14.3767 8.9027 14.7443 9.99995 14.7443C11.0972 14.7443 11.9297 14.3767 12.4875 14.0048C12.7651 13.8198 12.9753 13.6335 13.1188 13.4899C13.1907 13.418 13.2465 13.3563 13.2862 13.3099L13.3579 13.2216C13.5838 12.9204 13.5228 12.493 13.2215 12.2671C12.9217 12.0422 12.497 12.1016 12.2702 12.3991L12.2691 12.4006C12.2609 12.4108 12.2224 12.4579 12.1546 12.5257C12.0637 12.6165 11.9223 12.7428 11.7311 12.8702C11.3514 13.1233 10.7777 13.3807 9.99995 13.3807C9.2222 13.3807 8.64846 13.1233 8.26878 12.8702C8.07763 12.7428 7.93619 12.6165 7.84535 12.5257C7.80502 12.4854 7.7652 12.4438 7.72965 12.3991Z" fill="#0F140F"/>
<path d="M13.6364 9.77273C14.264 9.77273 14.7727 9.26396 14.7727 8.63636C14.7727 8.00877 14.264 7.5 13.6364 7.5C13.0088 7.5 12.5 8.00877 12.5 8.63636C12.5 9.26396 13.0088 9.77273 13.6364 9.77273Z" fill="#0F140F"/>
<path d="M7.27273 8.63636C7.27273 9.26396 6.76396 9.77273 6.13636 9.77273C5.50877 9.77273 5 9.26396 5 8.63636C5 8.00877 5.50877 7.5 6.13636 7.5C6.76396 7.5 7.27273 8.00877 7.27273 8.63636Z" fill="#0F140F"/>
<path fill-rule="evenodd" clip-rule="evenodd" d="M10 0C4.47715 0 0 4.47715 0 10C0 15.5228 4.47715 20 10 20C15.5228 20 20 15.5228 20 10C20 4.47715 15.5228 0 10 0ZM10 1.61932C5.37148 1.61932 1.61932 5.37148 1.61932 10C1.61932 14.6285 5.37148 18.3807 10 18.3807C14.6285 18.3807 18.3807 14.6285 18.3807 10C18.3807 5.37148 14.6285 1.61932 10 1.61932Z" fill="#0F140F"/>
</svg>
