<svg width="20" height="20" viewBox="0 0 20 20" fill="none" xmlns="http://www.w3.org/2000/svg">
<path d="M10.6818 6.13636C10.6818 5.75981 10.3766 5.45455 10 5.45455C9.62344 5.45455 9.31818 5.75981 9.31818 6.13636V9.31818H6.13636C5.75981 9.31818 5.45455 9.62344 5.45455 10C5.45455 10.3766 5.75981 10.6818 6.13636 10.6818H9.31818V13.8636C9.31818 14.2402 9.62344 14.5455 10 14.5455C10.3766 14.5455 10.6818 14.2402 10.6818 13.8636V10.6818H13.8636C14.2402 10.6818 14.5455 10.3766 14.5455 10C14.5455 9.62344 14.2402 9.31818 13.8636 9.31818H10.6818V6.13636Z" fill="#0F140F"/>
<path fill-rule="evenodd" clip-rule="evenodd" d="M10 0C4.47715 0 0 4.47715 0 10C0 15.5228 4.47715 20 10 20C15.5228 20 20 15.5228 20 10C20 4.47715 15.5228 0 10 0ZM1.36364 10C1.36364 5.23027 5.23027 1.36364 10 1.36364C14.7697 1.36364 18.6364 5.23027 18.6364 10C18.6364 14.7697 14.7697 18.6364 10 18.6364C5.23027 18.6364 1.36364 14.7697 1.36364 10Z" fill="#0F140F"/>
</svg>
