<svg width="20" height="21" viewBox="0 0 20 21" fill="none" xmlns="http://www.w3.org/2000/svg">
<path fill-rule="evenodd" clip-rule="evenodd" d="M10.0001 0.9375C6.62367 0.9375 3.88656 3.52955 3.88656 6.72697C3.88656 8.71588 4.94562 10.4705 6.55884 11.5128C2.81891 12.8102 0.124925 16.1616 0.000376256 20.1245C-0.0133211 20.5604 0.34866 20.9242 0.808883 20.9371C1.26911 20.9501 1.65329 20.6073 1.66699 20.1715C1.80053 15.9225 5.48038 12.5164 10 12.5164C14.5196 12.5164 18.1995 15.9225 18.333 20.1715C18.3467 20.6073 18.7309 20.9501 19.1911 20.9371C19.6513 20.9242 20.0133 20.5604 19.9996 20.1245C19.8751 16.1617 17.1812 12.8103 13.4413 11.5129C15.0546 10.4706 16.1136 8.71591 16.1136 6.72697C16.1136 3.52955 13.3765 0.9375 10.0001 0.9375ZM5.55391 6.72697C5.55391 4.40155 7.54455 2.51645 10.0001 2.51645C12.4557 2.51645 14.4463 4.40155 14.4463 6.72697C14.4463 9.05239 12.4557 10.9375 10.0001 10.9375C7.54455 10.9375 5.55391 9.05239 5.55391 6.72697Z" fill="#0F140F"/>
</svg>
