<svg width="24" height="26" viewBox="0 0 24 26" fill="none" xmlns="http://www.w3.org/2000/svg">
<path d="M12 14.5909C13.6569 14.5909 15 13.3346 15 11.785C15 10.2353 13.6569 8.97901 12 8.97901C10.3431 8.97901 9 10.2353 9 11.785C9 13.3346 10.3431 14.5909 12 14.5909Z" fill="#FDFDFD"/>
<path fill-rule="evenodd" clip-rule="evenodd" d="M20.4853 3.28737C15.799 -1.09579 8.20101 -1.09579 3.51472 3.28737C-1.17157 7.67052 -1.17157 14.777 3.51472 19.1602L3.54796 19.1911L9.99868 25.2246C11.104 26.2585 12.8962 26.2585 14.0015 25.2246L20.4854 19.1602C25.1716 14.777 25.1715 7.67049 20.4853 3.28737ZM4.78751 4.47783C8.77086 0.752145 15.2291 0.752145 19.2125 4.47783C23.1958 8.20349 23.1958 14.244 19.2126 17.9697L12.7287 24.0342C12.3263 24.4105 11.6739 24.4105 11.2715 24.0342L4.81831 17.9984L4.81586 17.9961L4.78751 17.9697C0.804163 14.244 0.804163 8.20351 4.78751 4.47783Z" fill="#FDFDFD"/>
</svg>
