<svg width="20" height="20" viewBox="0 0 20 20" fill="none" xmlns="http://www.w3.org/2000/svg">
<path d="M6.22426 5.07162C5.58767 5.07162 5.07162 5.58767 5.07162 6.22426C5.07162 6.86084 5.58767 7.3769 6.22426 7.3769C6.86084 7.3769 7.3769 6.86084 7.3769 6.22426C7.3769 5.58767 6.86084 5.07162 6.22426 5.07162Z" fill="#0F140F"/>
<path fill-rule="evenodd" clip-rule="evenodd" d="M1.38317 0C0.619265 0 0 0.619265 0 1.38317V9.16518C0 9.53202 0.145726 9.88384 0.405121 10.1432L9.85677 19.5949C10.3969 20.135 11.2727 20.135 11.8129 19.5949L19.5949 11.8129C20.135 11.2727 20.135 10.3969 19.5949 9.85677L10.1432 0.405121C9.88384 0.145726 9.53202 0 9.16518 0H1.38317ZM1.38317 1.38317H9.16518L18.6168 10.8348L10.8348 18.6168L1.38317 9.16518V1.38317Z" fill="#0F140F"/>
</svg>
