<svg fill="orange" version="1.1" id="Layer_1" xmlns="http://www.w3.org/2000/svg"
    xmlns:xlink="http://www.w3.org/1999/xlink" viewBox="0 0 472.65 472.65" xml:space="preserve">
    <g id="SVGRepo_bgCarrier" stroke-width="0"></g>
    <g id="SVGRepo_tracerCarrier" stroke-linecap="round" stroke-linejoin="round"></g>
    <g id="SVGRepo_iconCarrier">
        <g>
            <g>
                <rect x="226.479" width="19.692" height="39.385"></rect>
            </g>
        </g>
        <g>
            <g>
                <rect x="128.015" y="26.395" transform="matrix(0.866 -0.5 0.5 0.866 -4.5731 75.1089)" width="19.692"
                    height="39.385"></rect>
            </g>
        </g>
        <g>
            <g>
                <rect x="55.944" y="98.47" transform="matrix(0.5 -0.866 0.866 0.5 -69.4362 116.052)" width="19.692"
                    height="39.385"></rect>
            </g>
        </g>
        <g>
            <g>
                <rect x="19.71" y="206.779" width="39.385" height="19.692"></rect>
            </g>
        </g>
        <g>
            <g>
                <rect x="46.081" y="305.234" transform="matrix(0.8661 -0.4999 0.4999 0.8661 -148.7009 75.0747)"
                    width="39.385" height="19.692"></rect>
            </g>
        </g>
        <g>
            <g>
                <rect x="397.022" y="295.355" transform="matrix(0.5 -0.866 0.866 0.5 -69.4114 509.8652)" width="19.692"
                    height="39.385"></rect>
            </g>
        </g>
        <g>
            <g>
                <rect x="413.556" y="206.779" width="39.385" height="19.692"></rect>
            </g>
        </g>
        <g>
            <g>
                <rect x="387.17" y="108.315" transform="matrix(0.8661 -0.4999 0.4999 0.8661 -4.5827 219.2152)"
                    width="39.385" height="19.692"></rect>
            </g>
        </g>
        <g>
            <g>
                <rect x="315.092" y="36.233" transform="matrix(0.4999 -0.8661 0.8661 0.4999 127.5105 312.9902)"
                    width="39.385" height="19.692"></rect>
            </g>
        </g>
        <g>
            <g>
                <path
                    d="M152.451,393.851c1.121,6.493,2.075,13.049,2.816,19.692h162.084c0.79-6.57,1.813-13.133,3.048-19.692H152.451z">
                </path>
            </g>
        </g>
        <g>
            <g>
                <path
                    d="M156.94,433.236c0.341,6.335,0.616,12.693,0.616,19.131v20.283h157.538v-24.418c0-4.999,0.286-9.998,0.546-14.996H156.94z ">
                </path>
            </g>
        </g>
        <g>
            <g>
                <path
                    d="M334.786,96.724c-31.705-28.455-72.665-41.452-115.298-36.726C152.14,67.481,97.494,121.733,89.716,189.081 c-4.037,34.462,3.545,68.037,22.055,96.886c16.826,26.401,29.026,56.216,36.639,88.192h176.38 c8.007-31.155,20.857-62.105,38.845-92.524c13.292-22.646,20.382-48.542,20.382-74.831 C384.017,164.859,366.097,124.687,334.786,96.724z">
                </path>
            </g>
        </g>
    </g>
</svg>