<svg width="42" height="45" viewBox="0 0 42 45" fill="none" xmlns="http://www.w3.org/2000/svg">
<path fill-rule="evenodd" clip-rule="evenodd" d="M10.5 0C10.8978 0 11.2794 0.158035 11.5607 0.43934C11.842 0.720644 12 1.10218 12 1.5V3H30V1.5C30 1.10218 30.158 0.720644 30.4393 0.43934C30.7206 0.158035 31.1022 0 31.5 0C31.8978 0 32.2794 0.158035 32.5607 0.43934C32.842 0.720644 33 1.10218 33 1.5V3C37.98 3 42 7.02 42 12V36C42 40.98 37.98 45 33 45H9C4.02 45 0 40.98 0 36V12C0 7.02 4.02 3 9 3V1.5C9 1.10218 9.15804 0.720644 9.43934 0.43934C9.72064 0.158035 10.1022 0 10.5 0ZM39 12V15H3V12C3 8.7 5.685 6 9 6V7.5C9 7.89782 9.15804 8.27936 9.43934 8.56066C9.72064 8.84196 10.1022 9 10.5 9C10.8978 9 11.2794 8.84196 11.5607 8.56066C11.842 8.27936 12 7.89782 12 7.5V6H30V7.5C30 7.89782 30.158 8.27936 30.4393 8.56066C30.7206 8.84196 31.1022 9 31.5 9C31.8978 9 32.2794 8.84196 32.5607 8.56066C32.842 8.27936 33 7.89782 33 7.5V6C36.3 6 39 8.685 39 12ZM3 36V18H39V36C39 39.3 36.315 42 33 42H9C5.7 42 3 39.315 3 36Z" fill="white"/>
</svg>
