<svg width="33" height="33" viewBox="0 0 33 33" fill="none" xmlns="http://www.w3.org/2000/svg">
<path d="M16.5001 2.75C14.6944 2.75 12.9064 3.10565 11.2382 3.79666C9.56993 4.48766 8.05415 5.50048 6.77734 6.77728C4.19872 9.35591 2.75006 12.8533 2.75006 16.5C2.7392 19.6749 3.83842 22.7537 5.85756 25.2038L3.10756 27.9538C2.91677 28.1471 2.78752 28.3926 2.73613 28.6594C2.68474 28.9261 2.71351 29.2021 2.81881 29.4525C2.93301 29.6999 3.11815 29.9078 3.35072 30.0498C3.5833 30.1918 3.85281 30.2615 4.12506 30.25H16.5001C20.1468 30.25 23.6442 28.8013 26.2228 26.2227C28.8014 23.6441 30.2501 20.1467 30.2501 16.5C30.2501 12.8533 28.8014 9.35591 26.2228 6.77728C23.6442 4.19866 20.1468 2.75 16.5001 2.75ZM16.5001 27.5H7.43881L8.71756 26.2212C8.97365 25.9636 9.1174 25.6151 9.1174 25.2519C9.1174 24.8886 8.97365 24.5401 8.71756 24.2825C6.91712 22.4841 5.79592 20.117 5.54501 17.5846C5.2941 15.0522 5.92898 12.5111 7.3415 10.3943C8.75401 8.27755 10.8568 6.71599 13.2915 5.97571C15.7263 5.23543 18.3424 5.36223 20.6941 6.33451C23.0458 7.30678 24.9877 9.06438 26.1889 11.3079C27.3901 13.5513 27.7763 16.1419 27.2816 18.6381C26.787 21.1344 25.4421 23.3819 23.4762 24.9978C21.5102 26.6137 19.0449 27.498 16.5001 27.5Z" fill="white"/>
</svg>
