<svg width="48" height="48" viewBox="0 0 48 48" fill="none" xmlns="http://www.w3.org/2000/svg">
<path d="M24 4L18 10H10V18L4 24L10 30V38H18L24 44L30 38H38V30L44 24L38 18V10H30L24 4Z" stroke="white" stroke-width="4" stroke-linejoin="round"/>
<path d="M24 30C25.5913 30 27.1174 29.3679 28.2426 28.2426C29.3679 27.1174 30 25.5913 30 24C30 22.4087 29.3679 20.8826 28.2426 19.7574C27.1174 18.6321 25.5913 18 24 18C22.4087 18 20.8826 18.6321 19.7574 19.7574C18.6321 20.8826 18 22.4087 18 24C18 25.5913 18.6321 27.1174 19.7574 28.2426C20.8826 29.3679 22.4087 30 24 30Z" stroke="white" stroke-width="4" stroke-linejoin="round"/>
</svg>
