<svg width="337" height="82" viewBox="0 0 337 82" fill="none" xmlns="http://www.w3.org/2000/svg">
<path d="M0.988517 52.36C1.68852 50.82 2.52852 48.8367 3.50852 46.41C4.48852 43.9833 5.51518 41.37 6.58852 38.57C7.66185 35.7233 8.75852 32.83 9.87852 29.89C10.9985 26.9033 12.0485 24.08 13.0285 21.42C14.0085 18.76 14.8485 16.38 15.5485 14.28C16.2952 12.18 16.8319 10.57 17.1585 9.45C14.2185 10.6633 11.6985 12.5067 9.59852 14.98C7.49852 17.4533 5.91185 20.5567 4.83852 24.29C3.76518 23.9167 2.78518 23.2633 1.89852 22.33C1.01185 21.35 0.428516 20.1367 0.148516 18.69C0.615183 16.5433 1.47852 14.5833 2.73852 12.81C4.04518 11.0367 5.67852 9.52 7.63852 8.26C9.59852 7 11.8618 6.04333 14.4285 5.39C16.9952 4.69 19.7485 4.34 22.6885 4.34C26.4219 4.34 29.8519 4.9 32.9785 6.02C36.1052 7.09333 38.7885 8.61 41.0285 10.57C43.2685 12.53 45.0185 14.8867 46.2785 17.64C47.5385 20.3933 48.1685 23.45 48.1685 26.81C48.1685 31.3833 47.3285 35.7467 45.6485 39.9C43.9685 44.0533 41.6819 47.7167 38.7885 50.89C35.9418 54.0633 32.6285 56.5833 28.8485 58.45C25.0685 60.3633 21.1019 61.32 16.9485 61.32C13.1219 61.32 9.83185 60.55 7.07852 59.01C4.37185 57.5167 2.34185 55.3 0.988517 52.36ZM25.6985 7.84C23.3652 7.84 21.1485 8.16666 19.0485 8.82C21.1019 9.56666 22.8052 10.36 24.1585 11.2C25.5118 11.9933 26.4452 12.6233 26.9585 13.09C26.5852 13.6033 26.0252 14.5133 25.2785 15.82C24.5785 17.1267 23.7385 18.7133 22.7585 20.58C21.8252 22.4467 20.8219 24.5 19.7485 26.74C18.6752 28.9333 17.6252 31.1967 16.5985 33.53C13.9385 39.4567 12.0019 44.1233 10.7885 47.53C9.62185 50.9367 9.03852 53.2933 9.03852 54.6C9.69185 54.8333 10.4852 54.9967 11.4185 55.09C12.3518 55.1833 13.3552 55.23 14.4285 55.23C18.2085 55.23 21.7785 54.3667 25.1385 52.64C28.5452 50.8667 31.5085 48.51 34.0285 45.57C36.5952 42.63 38.6019 39.2233 40.0485 35.35C41.5418 31.43 42.2885 27.3233 42.2885 23.03C42.2885 18.2233 40.7952 14.49 37.8085 11.83C34.8219 9.17 30.7852 7.84 25.6985 7.84ZM74.3091 27.72C74.7758 27.72 75.3125 27.8133 75.9191 28C76.5725 28.14 77.1558 28.35 77.6691 28.63C78.1825 28.8633 78.6025 29.12 78.9291 29.4C79.3025 29.68 79.4891 29.9367 79.4891 30.17C78.5558 32.13 77.6925 34.1133 76.8991 36.12C76.1058 38.08 75.4291 39.97 74.8691 41.79C74.3091 43.61 73.8658 45.3133 73.5391 46.9C73.2591 48.4867 73.1191 49.8633 73.1191 51.03C73.1191 52.3367 73.2591 53.4333 73.5391 54.32C73.8191 55.16 74.2858 55.7667 74.9391 56.14C74.3791 56.5133 73.6558 56.8167 72.7691 57.05C71.8825 57.2833 71.0891 57.4 70.3891 57.4C67.8691 57.4 66.6091 55.6733 66.6091 52.22C66.6091 49.56 67.4958 45.92 69.2691 41.3C68.3358 43.4467 67.2625 45.4767 66.0491 47.39C64.8358 49.2567 63.5991 50.9133 62.3391 52.36C61.0791 53.8067 59.7958 54.9967 58.4891 55.93C57.2291 56.8167 56.0625 57.3533 54.9891 57.54C53.2625 57.4467 51.8625 56.63 50.7891 55.09C49.7158 53.5033 49.1791 51.4967 49.1791 49.07C49.1791 46.4567 49.7391 43.7033 50.8591 40.81C51.9791 37.9167 53.4025 35.2333 55.1291 32.76C56.9025 30.2867 58.8158 28.2333 60.8691 26.6C62.9225 24.92 64.9058 24.0333 66.8191 23.94C67.2858 24.08 67.7991 24.36 68.3591 24.78C68.9658 25.2 69.5258 25.69 70.0391 26.25C70.5991 26.81 71.0658 27.3933 71.4391 28C71.8125 28.56 72.0225 29.05 72.0691 29.47C70.2025 29.75 68.2658 30.66 66.2591 32.2C64.2991 33.74 62.5025 35.6067 60.8691 37.8C59.2825 39.9467 57.9758 42.2567 56.9491 44.73C55.9225 47.2033 55.4091 49.5133 55.4091 51.66C55.4091 52.5467 55.7358 53.1067 56.3891 53.34C57.7425 53.06 59.3058 51.9167 61.0791 49.91C62.8525 47.8567 64.9991 44.7067 67.5191 40.46C67.9858 39.62 68.4991 38.6867 69.0591 37.66C69.6658 36.6333 70.2725 35.56 70.8791 34.44C71.4858 33.32 72.0691 32.2 72.6291 31.08C73.2358 29.9133 73.7958 28.7933 74.3091 27.72ZM94.38 22.05C95.5933 22.4233 96.7367 23.2633 97.81 24.57C98.8833 25.83 99.6767 27.23 100.19 28.77C99.6767 30.03 98.8833 31.5467 97.81 33.32C96.7367 35.0933 95.6633 36.9133 94.59 38.78C93.5167 40.6 92.5367 42.35 91.65 44.03C90.81 45.6633 90.32 47.0167 90.18 48.09C90.9267 47.2967 91.7433 46.3867 92.63 45.36C93.5633 44.2867 94.45 43.2367 95.29 42.21C96.1767 41.1367 96.9933 40.18 97.74 39.34C98.4867 38.4533 99.07 37.8 99.49 37.38C100.377 36.4467 101.427 35.3733 102.64 34.16C103.853 32.9 105.113 31.7333 106.42 30.66C107.773 29.54 109.127 28.6067 110.48 27.86C111.833 27.0667 113.07 26.67 114.19 26.67C115.403 26.67 116.407 27.09 117.2 27.93C118.04 28.7233 118.693 29.5633 119.16 30.45C119.16 30.5433 118.973 30.6833 118.6 30.87C118.273 31.01 117.783 31.4533 117.13 32.2C116.477 33.04 115.73 34.2067 114.89 35.7C114.097 37.1467 113.303 38.7333 112.51 40.46C111.763 42.14 111.133 43.8667 110.62 45.64C110.107 47.4133 109.85 49.0233 109.85 50.47C109.85 51.6367 109.99 52.3833 110.27 52.71C110.597 53.0367 111.04 53.2 111.6 53.2C112.113 53.2 112.65 53.0833 113.21 52.85C113.77 52.6167 114.213 52.5 114.54 52.5C114.727 52.5933 114.867 52.8033 114.96 53.13C115.1 53.41 115.17 53.6667 115.17 53.9C114.797 54.2267 114.353 54.5533 113.84 54.88C113.327 55.2067 112.79 55.51 112.23 55.79C111.67 56.07 111.11 56.3033 110.55 56.49C110.037 56.6767 109.57 56.77 109.15 56.77C107.797 56.77 106.677 56.56 105.79 56.14C104.95 55.7667 104.273 55.2533 103.76 54.6C103.293 53.9467 102.967 53.1767 102.78 52.29C102.593 51.3567 102.5 50.3767 102.5 49.35C102.5 48.79 102.547 48.16 102.64 47.46C102.733 46.76 102.92 45.9433 103.2 45.01C103.48 44.03 103.877 42.8867 104.39 41.58C104.903 40.2267 105.557 38.6167 106.35 36.75C106.257 36.75 105.627 37.0767 104.46 37.73C103.293 38.3833 102.033 39.3867 100.68 40.74C98.4867 42.84 96.5033 44.9167 94.73 46.97C93.0033 49.0233 91.23 51.31 89.41 53.83C88.3833 55.2767 87.4733 56.49 86.68 57.47C85.9333 58.4967 85.28 59.1733 84.72 59.5C83.74 58.94 83.0167 58.1467 82.55 57.12C82.0833 56.14 81.7333 55.1133 81.5 54.04C81.5 53.1533 81.6167 52.0333 81.85 50.68C82.13 49.3267 82.48 47.8333 82.9 46.2C83.3667 44.52 83.9267 42.77 84.58 40.95C85.2333 39.13 85.9567 37.31 86.75 35.49C88.5233 31.3833 90.1333 28.1633 91.58 25.83C93.0733 23.4967 94.0067 22.2367 94.38 22.05ZM121.263 43.68C121.263 41.02 121.799 38.4533 122.873 35.98C123.993 33.46 125.439 31.2433 127.213 29.33C129.033 27.37 131.086 25.8067 133.373 24.64C135.706 23.4267 138.109 22.82 140.583 22.82C143.009 22.82 144.876 23.4267 146.183 24.64C147.489 25.8533 148.143 27.58 148.143 29.82C148.143 30.8933 147.979 31.9433 147.653 32.97C147.373 33.95 146.976 34.8367 146.463 35.63C145.996 36.4233 145.436 37.0767 144.783 37.59C144.129 38.0567 143.476 38.29 142.823 38.29C142.263 38.29 141.679 38.1267 141.073 37.8C140.513 37.4267 140.046 36.96 139.673 36.4C142.799 33.5533 144.363 30.9633 144.363 28.63C144.363 27.2767 143.826 26.6 142.753 26.6C141.819 26.6 140.653 27.0433 139.253 27.93C137.853 28.8167 136.499 29.9833 135.193 31.43C133.186 33.67 131.646 36.1667 130.573 38.92C129.546 41.6267 129.033 44.4733 129.033 47.46C129.033 51.24 129.873 53.5033 131.553 54.25C132.253 54.1567 133.069 53.9467 134.003 53.62C134.936 53.2933 135.939 52.8733 137.013 52.36C138.086 51.8 139.183 51.17 140.303 50.47C141.469 49.77 142.589 49.0233 143.663 48.23C143.849 48.37 144.013 48.58 144.153 48.86C144.293 49.14 144.363 49.3967 144.363 49.63C143.569 50.61 142.659 51.5667 141.633 52.5C140.606 53.4333 139.533 54.2967 138.413 55.09C137.293 55.8367 136.196 56.4667 135.123 56.98C134.096 57.54 133.186 57.89 132.393 58.03C130.853 57.89 129.406 57.4 128.053 56.56C126.699 55.7667 125.509 54.7167 124.483 53.41C123.503 52.1033 122.709 50.61 122.103 48.93C121.543 47.25 121.263 45.5 121.263 43.68ZM175.297 27.02C175.111 29.9133 174.597 32.41 173.757 34.51C172.917 36.5633 171.704 38.3833 170.117 39.97C168.577 41.51 166.687 42.91 164.447 44.17C162.207 45.43 159.594 46.6433 156.607 47.81C156.607 48.09 156.584 48.3933 156.537 48.72C156.537 49 156.537 49.3033 156.537 49.63C156.537 50.2367 156.584 50.8667 156.677 51.52C156.771 52.1733 156.934 52.78 157.167 53.34C157.401 53.9 157.727 54.3667 158.147 54.74C158.567 55.0667 159.104 55.23 159.757 55.23C161.017 55.23 162.254 54.95 163.467 54.39C164.681 53.83 165.824 53.1533 166.897 52.36C168.017 51.52 169.044 50.6333 169.977 49.7C170.957 48.72 171.821 47.8333 172.567 47.04C173.034 47.46 173.431 47.8567 173.757 48.23C171.657 51.03 169.347 53.3633 166.827 55.23C164.354 57.05 161.997 58.2167 159.757 58.73C156.537 58.3567 154.017 57.19 152.197 55.23C150.424 53.2233 149.537 50.82 149.537 48.02C149.537 46.1067 149.794 44.17 150.307 42.21C150.867 40.2033 151.614 38.29 152.547 36.47C153.527 34.6033 154.647 32.8533 155.907 31.22C157.214 29.5867 158.591 28.1633 160.037 26.95C161.531 25.7367 163.047 24.78 164.587 24.08C166.174 23.38 167.737 23.03 169.277 23.03C171.424 23.31 173.431 24.64 175.297 27.02ZM170.467 29.33C169.207 29.5167 167.901 30.03 166.547 30.87C165.194 31.71 163.911 32.83 162.697 34.23C161.531 35.63 160.457 37.2633 159.477 39.13C158.497 40.9967 157.727 43.0033 157.167 45.15C160.901 43.2833 164.004 40.9967 166.477 38.29C168.951 35.5367 170.281 32.55 170.467 29.33ZM184.885 13.58C183.018 13.58 181.572 13.0667 180.545 12.04C179.565 10.9667 179.075 9.68333 179.075 8.19C179.075 7.81666 179.122 7.37333 179.215 6.86C179.355 6.34666 179.518 5.90333 179.705 5.53C180.312 5.81 181.198 6.02 182.365 6.16C183.578 6.25333 184.978 6.3 186.565 6.3C188.945 6.3 191.628 6.20666 194.615 6.02C197.648 5.78666 200.542 5.55333 203.295 5.32C206.048 5.08666 208.475 4.87666 210.575 4.69C212.675 4.45666 214.028 4.34 214.635 4.34C216.362 4.34 217.598 4.99333 218.345 6.3C219.138 7.56 219.722 9.26333 220.095 11.41C218.882 11.3167 217.668 11.2467 216.455 11.2C215.288 11.1067 214.285 11.06 213.445 11.06C211.952 11.06 210.435 11.1067 208.895 11.2C207.402 11.2933 205.885 11.4333 204.345 11.62C203.692 12.9733 202.968 14.5833 202.175 16.45C201.382 18.27 200.588 20.1833 199.795 22.19C199.048 24.1967 198.325 26.2033 197.625 28.21C196.925 30.17 196.318 31.9433 195.805 33.53C194.778 36.61 193.868 39.4567 193.075 42.07C192.328 44.6833 191.652 47.1333 191.045 49.42C190.485 51.66 189.995 53.8067 189.575 55.86C189.155 57.9133 188.782 59.92 188.455 61.88C185.328 61.4133 182.715 59.4533 180.615 56C180.988 54.5533 181.432 52.99 181.945 51.31C182.505 49.5833 183.135 47.6467 183.835 45.5C184.582 43.3067 185.445 40.8333 186.425 38.08C187.405 35.3267 188.525 32.2 189.785 28.7C190.252 27.3933 190.742 26.04 191.255 24.64C191.768 23.1933 192.258 21.77 192.725 20.37C193.238 18.97 193.682 17.6167 194.055 16.31C194.475 15.0033 194.825 13.8133 195.105 12.74C193.145 12.9733 191.278 13.1833 189.505 13.37C187.778 13.51 186.238 13.58 184.885 13.58ZM228.118 27.72C228.584 27.72 229.121 27.8133 229.728 28C230.381 28.14 230.964 28.35 231.478 28.63C231.991 28.8633 232.411 29.12 232.738 29.4C233.111 29.68 233.298 29.9367 233.298 30.17C232.364 32.13 231.501 34.1133 230.708 36.12C229.914 38.08 229.238 39.97 228.678 41.79C228.118 43.61 227.674 45.3133 227.348 46.9C227.068 48.4867 226.928 49.8633 226.928 51.03C226.928 52.3367 227.068 53.4333 227.348 54.32C227.628 55.16 228.094 55.7667 228.748 56.14C228.188 56.5133 227.464 56.8167 226.578 57.05C225.691 57.2833 224.898 57.4 224.198 57.4C221.678 57.4 220.418 55.6733 220.418 52.22C220.418 49.56 221.304 45.92 223.078 41.3C222.144 43.4467 221.071 45.4767 219.858 47.39C218.644 49.2567 217.408 50.9133 216.148 52.36C214.888 53.8067 213.604 54.9967 212.298 55.93C211.038 56.8167 209.871 57.3533 208.798 57.54C207.071 57.4467 205.671 56.63 204.598 55.09C203.524 53.5033 202.988 51.4967 202.988 49.07C202.988 46.4567 203.548 43.7033 204.668 40.81C205.788 37.9167 207.211 35.2333 208.938 32.76C210.711 30.2867 212.624 28.2333 214.678 26.6C216.731 24.92 218.714 24.0333 220.628 23.94C221.094 24.08 221.608 24.36 222.168 24.78C222.774 25.2 223.334 25.69 223.848 26.25C224.408 26.81 224.874 27.3933 225.248 28C225.621 28.56 225.831 29.05 225.878 29.47C224.011 29.75 222.074 30.66 220.068 32.2C218.108 33.74 216.311 35.6067 214.678 37.8C213.091 39.9467 211.784 42.2567 210.758 44.73C209.731 47.2033 209.218 49.5133 209.218 51.66C209.218 52.5467 209.544 53.1067 210.198 53.34C211.551 53.06 213.114 51.9167 214.888 49.91C216.661 47.8567 218.808 44.7067 221.328 40.46C221.794 39.62 222.308 38.6867 222.868 37.66C223.474 36.6333 224.081 35.56 224.688 34.44C225.294 33.32 225.878 32.2 226.438 31.08C227.044 29.9133 227.604 28.7933 228.118 27.72ZM231.739 79.17C231.085 78.9833 230.712 78.2833 230.619 77.07C230.432 76.4633 230.292 75.74 230.199 74.9C230.152 74.06 230.129 73.1033 230.129 72.03C230.129 71.05 230.292 69.6967 230.619 67.97C230.945 66.29 231.389 64.3767 231.949 62.23C232.555 60.0833 233.279 57.7733 234.119 55.3C234.959 52.78 235.892 50.2367 236.919 47.67C238.179 44.45 239.275 41.6733 240.209 39.34C241.142 36.96 241.912 34.9067 242.519 33.18C243.172 31.4533 243.685 30.03 244.059 28.91C244.479 27.79 244.805 26.8333 245.039 26.04C245.225 25.48 245.505 24.8033 245.879 24.01C246.252 23.2167 246.672 22.4233 247.139 21.63C247.652 20.79 248.165 20.02 248.679 19.32C249.192 18.5733 249.659 18.0133 250.079 17.64C251.712 17.8733 253.252 18.2933 254.699 18.9C256.145 19.5067 257.032 20.09 257.359 20.65C256.705 21.2567 255.959 22.2133 255.119 23.52C254.279 24.78 253.462 26.18 252.669 27.72C251.875 29.2133 251.152 30.7533 250.499 32.34C249.845 33.9267 249.355 35.3267 249.029 36.54C249.495 35.7467 250.102 34.8833 250.849 33.95C251.595 33.0167 252.739 31.7333 254.279 30.1C256.005 28.3267 257.615 26.9733 259.109 26.04C260.649 25.06 261.979 24.57 263.099 24.57C264.872 24.57 266.319 25.06 267.439 26.04C268.605 27.02 269.189 28.28 269.189 29.82C269.189 33.18 268.629 36.5167 267.509 39.83C266.389 43.0967 264.779 46.06 262.679 48.72C261.885 49.7467 260.952 50.7267 259.879 51.66C258.805 52.5933 257.685 53.4333 256.519 54.18C255.352 54.88 254.209 55.44 253.089 55.86C251.969 56.28 250.965 56.49 250.079 56.49C249.239 56.49 248.492 56.3267 247.839 56C247.232 55.6267 246.812 55.1833 246.579 54.67C248.399 53.5967 250.172 52.1033 251.899 50.19C253.625 48.2767 255.212 46.0833 256.659 43.61C258.152 41.09 259.435 38.3833 260.509 35.49C261.629 32.5967 262.469 29.6567 263.029 26.67C261.255 27.6033 259.645 28.63 258.199 29.75C256.799 30.8233 255.399 32.2467 253.999 34.02C252.319 36.0733 250.989 37.73 250.009 38.99C249.029 40.25 248.212 41.3233 247.559 42.21C246.952 43.0967 246.439 43.9367 246.019 44.73C245.645 45.4767 245.225 46.41 244.759 47.53C244.105 49.0233 243.335 51.0067 242.449 53.48C241.609 55.9067 240.722 58.6367 239.789 61.67C238.902 64.7033 237.992 67.9233 237.059 71.33C236.172 74.7833 235.309 78.2133 234.469 81.62C233.955 81.5267 233.512 81.1533 233.139 80.5C232.765 80.08 232.485 79.7767 232.299 79.59C232.159 79.4033 231.972 79.2633 231.739 79.17ZM266.602 79.17C265.949 78.9833 265.575 78.2833 265.482 77.07C265.295 76.4633 265.155 75.74 265.062 74.9C265.015 74.06 264.992 73.1033 264.992 72.03C264.992 71.05 265.155 69.6967 265.482 67.97C265.809 66.29 266.252 64.3767 266.812 62.23C267.419 60.0833 268.142 57.7733 268.982 55.3C269.822 52.78 270.755 50.2367 271.782 47.67C273.042 44.45 274.139 41.6733 275.072 39.34C276.005 36.96 276.775 34.9067 277.382 33.18C278.035 31.4533 278.549 30.03 278.922 28.91C279.342 27.79 279.669 26.8333 279.902 26.04C280.089 25.48 280.369 24.8033 280.742 24.01C281.115 23.2167 281.535 22.4233 282.002 21.63C282.515 20.79 283.029 20.02 283.542 19.32C284.055 18.5733 284.522 18.0133 284.942 17.64C286.575 17.8733 288.115 18.2933 289.562 18.9C291.009 19.5067 291.895 20.09 292.222 20.65C291.569 21.2567 290.822 22.2133 289.982 23.52C289.142 24.78 288.325 26.18 287.532 27.72C286.739 29.2133 286.015 30.7533 285.362 32.34C284.709 33.9267 284.219 35.3267 283.892 36.54C284.359 35.7467 284.965 34.8833 285.712 33.95C286.459 33.0167 287.602 31.7333 289.142 30.1C290.869 28.3267 292.479 26.9733 293.972 26.04C295.512 25.06 296.842 24.57 297.962 24.57C299.735 24.57 301.182 25.06 302.302 26.04C303.469 27.02 304.052 28.28 304.052 29.82C304.052 33.18 303.492 36.5167 302.372 39.83C301.252 43.0967 299.642 46.06 297.542 48.72C296.749 49.7467 295.815 50.7267 294.742 51.66C293.669 52.5933 292.549 53.4333 291.382 54.18C290.215 54.88 289.072 55.44 287.952 55.86C286.832 56.28 285.829 56.49 284.942 56.49C284.102 56.49 283.355 56.3267 282.702 56C282.095 55.6267 281.675 55.1833 281.442 54.67C283.262 53.5967 285.035 52.1033 286.762 50.19C288.489 48.2767 290.075 46.0833 291.522 43.61C293.015 41.09 294.299 38.3833 295.372 35.49C296.492 32.5967 297.332 29.6567 297.892 26.67C296.119 27.6033 294.509 28.63 293.062 29.75C291.662 30.8233 290.262 32.2467 288.862 34.02C287.182 36.0733 285.852 37.73 284.872 38.99C283.892 40.25 283.075 41.3233 282.422 42.21C281.815 43.0967 281.302 43.9367 280.882 44.73C280.509 45.4767 280.089 46.41 279.622 47.53C278.969 49.0233 278.199 51.0067 277.312 53.48C276.472 55.9067 275.585 58.6367 274.652 61.67C273.765 64.7033 272.855 67.9233 271.922 71.33C271.035 74.7833 270.172 78.2133 269.332 81.62C268.819 81.5267 268.375 81.1533 268.002 80.5C267.629 80.08 267.349 79.7767 267.162 79.59C267.022 79.4033 266.835 79.2633 266.602 79.17ZM309.795 42.84C309.795 41.58 310.122 39.76 310.775 37.38C311.475 34.9533 312.362 32.2933 313.435 29.4C314.508 26.46 315.722 23.45 317.075 20.37C318.428 17.2433 319.782 14.3267 321.135 11.62C322.535 8.91333 323.865 6.58 325.125 4.62C326.385 2.61333 327.482 1.28333 328.415 0.629999C329.162 0.769998 329.955 1.12 330.795 1.68C331.682 2.19333 332.498 2.8 333.245 3.5C333.992 4.15333 334.645 4.85333 335.205 5.6C335.765 6.34666 336.092 7 336.185 7.56C333.805 9.52 331.448 11.97 329.115 14.91C326.782 17.8033 324.612 21.0233 322.605 24.57C320.645 28.1167 318.918 31.92 317.425 35.98C315.932 39.9933 314.812 44.1 314.065 48.3C313.505 48.16 312.945 47.9967 312.385 47.81C311.872 47.5767 311.428 47.2733 311.055 46.9C310.682 46.5267 310.378 46.0133 310.145 45.36C309.912 44.7067 309.795 43.8667 309.795 42.84ZM308.255 61.39C307.695 61.39 307.158 61.25 306.645 60.97C306.132 60.7367 305.665 60.4333 305.245 60.06C304.872 59.7333 304.568 59.36 304.335 58.94C304.102 58.5667 303.985 58.2633 303.985 58.03C303.985 57.47 304.055 56.7467 304.195 55.86C304.335 54.9733 304.545 54.1333 304.825 53.34C305.105 52.5 305.455 51.8 305.875 51.24C306.295 50.6333 306.762 50.33 307.275 50.33C308.582 50.33 309.888 50.7967 311.195 51.73C312.548 52.6167 313.552 53.62 314.205 54.74C313.645 55.3467 313.155 56.0233 312.735 56.77C312.315 57.5633 311.895 58.2867 311.475 58.94C311.055 59.64 310.588 60.2233 310.075 60.69C309.562 61.1567 308.955 61.39 308.255 61.39Z" fill="url(#paint0_linear_161_6)"/>
<defs>
<linearGradient id="paint0_linear_161_6" x1="-11" y1="31" x2="321" y2="31" gradientUnits="userSpaceOnUse">
<stop stop-color="#FEA178"/>
<stop offset="1" stop-color="#A92F9C"/>
</linearGradient>
</defs>
</svg>
