<svg width="48" height="48" viewBox="0 0 48 48" fill="none" xmlns="http://www.w3.org/2000/svg">
<path d="M24 8C15.162 8 8 15.164 8 24C8 32.836 15.162 40 24 40C32.838 40 40 32.836 40 24C40 15.164 32.838 8 24 8ZM31.414 28.586C31.789 28.961 31.9997 29.4696 31.9997 30C31.9997 30.5304 31.789 31.039 31.414 31.414C31.039 31.789 30.5304 31.9997 30 31.9997C29.4696 31.9997 28.961 31.789 28.586 31.414L24 26.828L19.414 31.414C19.2287 31.6004 19.0084 31.7483 18.7657 31.8492C18.523 31.9501 18.2628 32.0021 18 32.0021C17.7372 32.0021 17.477 31.9501 17.2343 31.8492C16.9916 31.7483 16.7713 31.6004 16.586 31.414C16.2111 31.0389 16.0004 30.5303 16.0004 30C16.0004 29.4697 16.2111 28.9611 16.586 28.586L21.172 24L16.586 19.414C16.211 19.039 16.0003 18.5304 16.0003 18C16.0003 17.4696 16.211 16.961 16.586 16.586C16.961 16.211 17.4696 16.0003 18 16.0003C18.5304 16.0003 19.039 16.211 19.414 16.586L24 21.172L28.586 16.586C28.961 16.211 29.4696 16.0003 30 16.0003C30.5304 16.0003 31.039 16.211 31.414 16.586C31.789 16.961 31.9997 17.4696 31.9997 18C31.9997 18.5304 31.789 19.039 31.414 19.414L26.828 24L31.414 28.586Z" fill="white"/>
</svg>
