<svg width="48" height="48" viewBox="0 0 48 48" fill="none" xmlns="http://www.w3.org/2000/svg">
<path d="M36.3827 46.1694C35.844 46.1694 35.308 46.004 34.8467 45.6747L24 37.896L13.1534 45.6747C12.704 45.998 12.1639 46.171 11.6103 46.1691C11.0567 46.1672 10.5178 45.9904 10.0707 45.664C9.62297 45.3396 9.28902 44.8822 9.11641 44.357C8.9438 43.8317 8.94134 43.2654 9.10936 42.7387L13.1547 29.6827L2.40536 22.108C1.95987 21.7792 1.62902 21.3187 1.45962 20.7916C1.29021 20.2645 1.29082 19.6974 1.46136 19.1707C1.6336 18.6454 1.96637 18.1875 2.41275 17.8614C2.85913 17.5354 3.3966 17.3577 3.94936 17.3534L17.2627 17.3334L21.5014 4.60135C21.6763 4.07685 22.0118 3.62068 22.4603 3.29742C22.9089 2.97417 23.4478 2.80023 24.0007 2.80023C24.5536 2.80023 25.0925 2.97417 25.541 3.29742C25.9896 3.62068 26.3251 4.07685 26.5 4.60135L30.6667 17.3334L44.048 17.3534C44.6016 17.3565 45.14 17.5339 45.5869 17.8605C46.0338 18.1871 46.3665 18.6463 46.5375 19.1727C46.7086 19.6991 46.7095 20.2661 46.54 20.793C46.3705 21.3199 46.0393 21.7801 45.5934 22.108L34.844 29.6827L38.8894 42.7387C39.0575 43.2653 39.0553 43.8315 38.8829 44.3568C38.7105 44.882 38.3769 45.3395 37.9294 45.664C37.4807 45.9928 36.9389 46.1698 36.3827 46.1694Z" fill="#FFAC33"/>
</svg>
