<svg width="48" height="48" viewBox="0 0 48 48" fill="none" xmlns="http://www.w3.org/2000/svg">
<path fill-rule="evenodd" clip-rule="evenodd" d="M24 24C25.5913 24 27.1174 23.3679 28.2426 22.2426C29.3679 21.1174 30 19.5913 30 18C30 16.4087 29.3679 14.8826 28.2426 13.7574C27.1174 12.6321 25.5913 12 24 12C22.4087 12 20.8826 12.6321 19.7574 13.7574C18.6321 14.8826 18 16.4087 18 18C18 19.5913 18.6321 21.1174 19.7574 22.2426C20.8826 23.3679 22.4087 24 24 24ZM24 16.8C24.3183 16.8 24.6235 16.9264 24.8485 17.1515C25.0736 17.3765 25.2 17.6817 25.2 18C25.2 18.3183 25.0736 18.6235 24.8485 18.8485C24.6235 19.0736 24.3183 19.2 24 19.2C23.6817 19.2 23.3765 19.0736 23.1515 18.8485C22.9264 18.6235 22.8 18.3183 22.8 18C22.8 17.6817 22.9264 17.3765 23.1515 17.1515C23.3765 16.9264 23.6817 16.8 24 16.8Z" fill="white"/>
<path fill-rule="evenodd" clip-rule="evenodd" d="M12 17.4864C12 24.4776 18.732 36 24 36C29.268 36 36 24.4776 36 17.4864C36 10.512 30.6648 4.79999 24 4.79999C17.3352 4.79999 12 10.5144 12 17.4864ZM31.2 17.4864C31.2 22.176 25.9272 31.2 24 31.2C22.0728 31.2 16.8 22.176 16.8 17.4864C16.8 13.0944 20.064 9.59999 24 9.59999C27.936 9.59999 31.2 13.0944 31.2 17.4864Z" fill="white"/>
<path d="M32.952 24C32.3155 24 31.7051 23.7472 31.255 23.2971C30.8049 22.847 30.552 22.2365 30.552 21.6C30.552 20.9635 30.8049 20.353 31.255 19.903C31.7051 19.4529 32.3155 19.2 32.952 19.2C34.5255 19.2003 36.0555 19.716 37.3081 20.6682C38.5607 21.6204 39.4669 22.9568 39.888 24.4728L43.224 36.4728C43.5212 37.5426 43.567 38.6666 43.3577 39.7569C43.1485 40.8473 42.6899 41.8745 42.0179 42.7583C41.3458 43.642 40.4785 44.3584 39.4837 44.8513C38.4888 45.3443 37.3935 45.6006 36.2832 45.6H11.712C10.6022 45.5998 9.50738 45.343 8.51317 44.8498C7.51896 44.3565 6.65225 43.64 5.98073 42.7563C5.30922 41.8727 4.85108 40.8458 4.6421 39.7557C4.43312 38.6657 4.47895 37.5422 4.77602 36.4728L8.10962 24.4728C8.53089 22.9564 9.43743 21.6198 10.6905 20.6675C11.9436 19.7152 13.4742 19.1998 15.048 19.2C15.6845 19.2 16.295 19.4529 16.7451 19.903C17.1952 20.353 17.448 20.9635 17.448 21.6C17.448 22.2365 17.1952 22.847 16.7451 23.2971C16.295 23.7472 15.6845 24 15.048 24C14.5238 24.0002 14.014 24.1721 13.5967 24.4893C13.1793 24.8066 12.8773 25.2518 12.7368 25.7568L9.40082 37.7568C9.30156 38.1136 9.28623 38.4886 9.35604 38.8523C9.42584 39.2161 9.57889 39.5587 9.8032 39.8535C10.0275 40.1482 10.317 40.387 10.649 40.5512C10.981 40.7155 11.3464 40.8006 11.7168 40.8H36.288C36.658 40.7999 37.0229 40.7142 37.3543 40.5496C37.6857 40.3851 37.9745 40.1462 38.1983 39.8516C38.4221 39.5569 38.5747 39.2145 38.6442 38.8512C38.7138 38.4878 38.6984 38.1133 38.5992 37.7568L35.2656 25.7568C35.125 25.2514 34.8227 24.8059 34.4048 24.4886C33.987 24.1713 33.4767 23.9997 32.952 24Z" fill="white"/>
</svg>
