<svg width="35" height="35" viewBox="0 0 35 35" fill="none" xmlns="http://www.w3.org/2000/svg">
<path d="M17.5 20.4167C20.7171 20.4167 23.3334 17.8004 23.3334 14.5833C23.3334 11.3662 20.7171 8.75 17.5 8.75C14.2829 8.75 11.6667 11.3662 11.6667 14.5833C11.6667 17.8004 14.2829 20.4167 17.5 20.4167ZM17.5 11.6667C19.1086 11.6667 20.4167 12.9748 20.4167 14.5833C20.4167 16.1919 19.1086 17.5 17.5 17.5C15.8915 17.5 14.5834 16.1919 14.5834 14.5833C14.5834 12.9748 15.8915 11.6667 17.5 11.6667Z" fill="white"/>
<path d="M16.6542 31.8121C16.9011 31.988 17.1968 32.0825 17.5 32.0825C17.8032 32.0825 18.0988 31.988 18.3458 31.8121C18.7892 31.4986 29.2089 23.975 29.1667 14.5834C29.1667 8.15065 23.9327 2.91669 17.5 2.91669C11.0673 2.91669 5.83332 8.15065 5.83332 14.5761C5.79103 23.975 16.2108 31.4986 16.6542 31.8121ZM17.5 5.83335C22.3256 5.83335 26.25 9.75773 26.25 14.5906C26.2806 21.0627 19.8508 26.8742 17.5 28.7802C15.1506 26.8727 8.71936 21.0598 8.74999 14.5834C8.74999 9.75773 12.6744 5.83335 17.5 5.83335Z" fill="white"/>
</svg>
