<svg width="48" height="48" viewBox="0 0 48 48" fill="none" xmlns="http://www.w3.org/2000/svg">
<g clip-path="url(#clip0_351_974)">
<path d="M18.4615 0.347047C16.0824 0.346319 13.7265 0.814354 11.5283 1.72441C9.3301 2.63447 7.33276 3.96871 5.65039 5.65092C3.96801 7.33312 2.63357 9.33032 1.72329 11.5284C0.813005 13.7265 0.344731 16.0824 0.345216 18.4615C0.344488 20.8408 0.812583 23.1969 1.72276 25.3952C2.63293 27.5935 3.96734 29.5909 5.64974 31.2733C7.33214 32.9557 9.32955 34.2901 11.5279 35.2003C13.7262 36.1104 16.0823 36.5785 18.4615 36.5778C22.6892 36.5778 26.5717 35.0806 29.6548 32.6547L31.2701 34.2701C30.9384 34.9146 30.821 35.6481 30.9349 36.364C31.0488 37.0798 31.388 37.7407 31.9034 38.2504L40.3846 46.7889C41.7009 48.107 43.8554 48.107 45.1735 46.7889L46.7889 45.1735C47.4214 44.5371 47.7763 43.6763 47.7763 42.779C47.7763 41.8818 47.4214 41.021 46.7889 40.3846L38.2504 31.9034C37.7377 31.3905 37.0729 31.0572 36.3551 30.9534C35.6374 30.8496 34.9053 30.9808 34.2683 31.3274L32.6529 29.712C34.7674 27.0437 36.0871 23.8335 36.4607 20.4495C36.8344 17.0655 36.2468 13.6448 34.7654 10.5794C33.284 7.51407 30.9687 4.92825 28.085 3.11845C25.2014 1.30866 21.8661 0.348142 18.4615 0.347047ZM18.4615 3.69228C22.3786 3.69228 26.1352 5.24832 28.9049 8.01808C31.6747 10.7879 33.2308 14.5445 33.2308 18.4615C33.2308 22.3786 31.6747 26.1352 28.9049 28.9049C26.1352 31.6747 22.3786 33.2307 18.4615 33.2307C14.5445 33.2307 10.7879 31.6747 8.0181 28.9049C5.24833 26.1352 3.69229 22.3786 3.69229 18.4615C3.69229 14.5445 5.24833 10.7879 8.0181 8.01808C10.7879 5.24832 14.5445 3.69228 18.4615 3.69228ZM9.11445 13.7889C8.13013 15.384 7.61093 17.2223 7.61537 19.0966C7.61318 20.4231 7.87284 21.737 8.37947 22.963C8.8861 24.1889 9.62973 25.3029 10.5677 26.2409C11.5057 27.1788 12.6196 27.9225 13.8456 28.4291C15.0716 28.9357 16.3855 29.1954 17.712 29.1932C19.7977 29.1908 21.832 28.5462 23.5384 27.347C23.0782 27.3903 22.616 27.4087 22.1538 27.4024C20.4404 27.4068 18.743 27.0726 17.1591 26.419C15.5753 25.7653 14.1361 24.8052 12.9245 23.5937C11.7128 22.3822 10.7525 20.9432 10.0986 19.3595C9.44477 17.7757 9.11031 16.0783 9.11445 14.3649C9.11445 14.1729 9.10522 13.9809 9.11445 13.7889Z" fill="white"/>
</g>
<defs>
<clipPath id="clip0_351_974">
<rect width="48" height="48" fill="white"/>
</clipPath>
</defs>
</svg>
