<svg width="33" height="33" viewBox="0 0 33 33" fill="none" xmlns="http://www.w3.org/2000/svg">
<path d="M18.04 23.4066L12.2664 20.2579C11.5126 21.0637 10.5339 21.6242 9.45739 21.8664C8.38089 22.1087 7.25639 22.0216 6.23006 21.6164C5.20372 21.2112 4.32298 20.5067 3.70232 19.5943C3.08165 18.682 2.74976 17.6041 2.74976 16.5007C2.74976 15.3972 3.08165 14.3193 3.70232 13.407C4.32298 12.4947 5.20372 11.7901 6.23006 11.3849C7.25639 10.9797 8.38089 10.8926 9.45739 11.1349C10.5339 11.3772 11.5126 11.9376 12.2664 12.7435L18.0414 9.59473C17.714 8.29668 17.8713 6.92379 18.4838 5.73341C19.0962 4.54303 20.1218 3.6169 21.3683 3.12861C22.6148 2.64032 23.9965 2.62341 25.2546 3.08104C26.5126 3.53868 27.5606 4.43943 28.202 5.61447C28.8434 6.7895 29.0342 8.15813 28.7387 9.4638C28.4432 10.7695 27.6816 11.9225 26.5968 12.7069C25.5119 13.4912 24.1782 13.8529 22.8457 13.7242C21.5132 13.5955 20.2734 12.9853 19.3587 12.0079L13.5837 15.1566C13.8058 16.0384 13.8058 16.9615 13.5837 17.8434L19.3587 20.9921C20.2739 20.0152 21.514 19.4055 22.8465 19.2775C24.179 19.1495 25.5125 19.5118 26.597 20.2966C27.6815 21.0814 28.4425 22.2348 28.7374 23.5406C29.0323 24.8464 28.8409 26.2149 28.199 27.3896C27.557 28.5643 26.5087 29.4646 25.2505 29.9217C23.9923 30.3788 22.6106 30.3613 21.3643 29.8725C20.1181 29.3838 19.0929 28.4572 18.4809 27.2666C17.8689 26.076 17.7122 24.7031 18.04 23.4052M8.25004 19.25C8.97938 19.25 9.67886 18.9602 10.1946 18.4445C10.7103 17.9288 11 17.2293 11 16.5C11 15.7706 10.7103 15.0712 10.1946 14.5554C9.67886 14.0397 8.97938 13.75 8.25004 13.75C7.52069 13.75 6.82122 14.0397 6.3055 14.5554C5.78977 15.0712 5.50004 15.7706 5.50004 16.5C5.50004 17.2293 5.78977 17.9288 6.3055 18.4445C6.82122 18.9602 7.52069 19.25 8.25004 19.25ZM23.375 11C24.1044 11 24.8039 10.7102 25.3196 10.1945C25.8353 9.6788 26.125 8.97932 26.125 8.24998C26.125 7.52063 25.8353 6.82116 25.3196 6.30543C24.8039 5.78971 24.1044 5.49998 23.375 5.49998C22.6457 5.49998 21.9462 5.78971 21.4305 6.30543C20.9148 6.82116 20.625 7.52063 20.625 8.24998C20.625 8.97932 20.9148 9.6788 21.4305 10.1945C21.9462 10.7102 22.6457 11 23.375 11ZM23.375 27.5C24.1044 27.5 24.8039 27.2102 25.3196 26.6945C25.8353 26.1788 26.125 25.4793 26.125 24.75C26.125 24.0206 25.8353 23.3212 25.3196 22.8054C24.8039 22.2897 24.1044 22 23.375 22C22.6457 22 21.9462 22.2897 21.4305 22.8054C20.9148 23.3212 20.625 24.0206 20.625 24.75C20.625 25.4793 20.9148 26.1788 21.4305 26.6945C21.9462 27.2102 22.6457 27.5 23.375 27.5Z" fill="white"/>
</svg>
