<svg width="92" height="92" viewBox="0 0 92 92" fill="none" xmlns="http://www.w3.org/2000/svg">
<circle cx="46" cy="46" r="46" fill="#F0F0F0"/>
<path fill-rule="evenodd" clip-rule="evenodd" d="M34.3125 15.7084C35.8083 15.7084 37.0209 16.9209 37.0209 18.4167V21.125H55.9792V18.4167C55.9792 16.9209 57.1917 15.7084 58.6875 15.7084C60.1833 15.7084 61.3959 16.9209 61.3959 18.4167V21.1919C68.2389 21.8713 73.5834 27.6449 73.5834 34.6667V59.0417C73.5834 66.5206 67.5205 72.5834 60.0417 72.5834H32.9584C25.4795 72.5834 19.4167 66.5206 19.4167 59.0417V34.6667C19.4167 27.6449 24.7611 21.8713 31.6042 21.1919V18.4167C31.6042 16.9209 32.8167 15.7084 34.3125 15.7084ZM25.2957 31.9584H67.7044C66.589 28.8026 63.5794 26.5417 60.0417 26.5417H32.9584C29.4207 26.5417 26.4111 28.8026 25.2957 31.9584ZM68.1667 37.375H24.8334V59.0417C24.8334 63.529 28.471 67.1667 32.9584 67.1667H60.0417C64.529 67.1667 68.1667 63.529 68.1667 59.0417V37.375Z" fill="#272727"/>
</svg>
