<svg width="92" height="92" viewBox="0 0 92 92" fill="none" xmlns="http://www.w3.org/2000/svg">
<path d="M92 46C92 71.4051 71.4051 92 46 92C20.5949 92 0 71.4051 0 46C0 20.5949 20.5949 0 46 0C71.4051 0 92 20.5949 92 46Z" fill="#F0F0F0"/>
<path d="M27.563 31.4608L29.4663 33.9078L29.4663 33.9078L27.563 31.4608ZM36.063 24.8495L34.1598 22.4026L34.1598 22.4026L36.063 24.8495ZM56.937 24.8495L55.0337 27.2965L55.0337 27.2965L56.937 24.8495ZM65.437 31.4608L67.3402 29.0139L67.3402 29.0139L65.437 31.4608ZM38 70L38 66.9H38V70ZM55 70L55 66.9L55 66.9L55 70ZM21.8643 36.9883L19.0795 35.6263L19.0795 35.6263L21.8643 36.9883ZM54.2917 70H51.1917C51.1917 70.8222 51.5183 71.6107 52.0997 72.192C52.681 72.7734 53.4695 73.1 54.2917 73.1L54.2917 70ZM38.7083 70L38.7083 73.1C39.5305 73.1 40.319 72.7734 40.9003 72.192C41.4817 71.6107 41.8083 70.8222 41.8083 70H38.7083ZM68.9 44.8802V52.9995H75.1V44.8802H68.9ZM24.1 52.9994V44.8802H17.9V52.9994H24.1ZM29.4663 33.9078L37.9663 27.2965L34.1598 22.4026L25.6598 29.0139L29.4663 33.9078ZM55.0337 27.2965L63.5337 33.9078L67.3402 29.0139L58.8402 22.4025L55.0337 27.2965ZM37.9663 27.2965C40.5325 25.3004 42.2449 23.9751 43.6679 23.1176C45.0197 22.3031 45.814 22.1 46.5 22.1V15.9C44.2696 15.9 42.3523 16.6718 40.4681 17.8071C38.6551 18.8995 36.6072 20.4989 34.1598 22.4026L37.9663 27.2965ZM58.8402 22.4025C56.3928 20.4989 54.3448 18.8995 52.5319 17.8071C50.6477 16.6718 48.7304 15.9 46.5 15.9V22.1C47.186 22.1 47.9803 22.3031 49.3321 23.1176C50.7551 23.9751 52.4674 25.3004 55.0337 27.2965L58.8402 22.4025ZM38 66.9C33.9054 66.9 31.1464 66.8934 29.0863 66.6164C27.1154 66.3514 26.2545 65.8912 25.6817 65.3183L21.2975 69.7023C23.2143 71.6192 25.6017 72.4037 28.2601 72.7611C30.8294 73.1066 34.0807 73.1 38 73.1V66.9ZM17.9 52.9994C17.9 56.9189 17.8934 60.1703 18.2388 62.7396C18.5963 65.3981 19.3808 67.7855 21.2975 69.7023L25.6817 65.3183C25.1088 64.7455 24.6485 63.8845 24.3836 61.9135C24.1066 59.8533 24.1 57.0941 24.1 52.9994H17.9ZM68.9 52.9995C68.9 57.0942 68.8934 59.8533 68.6164 61.9135C68.3515 63.8845 67.8912 64.7455 67.3183 65.3183L71.7025 69.7023C73.6192 67.7855 74.4037 65.3981 74.7612 62.7396C75.1066 60.1703 75.1 56.9189 75.1 52.9995H68.9ZM55 73.1C58.9193 73.1 62.1706 73.1066 64.7399 72.7611C67.3983 72.4037 69.7857 71.6192 71.7025 69.7023L67.3183 65.3183C66.7455 65.8912 65.8846 66.3514 63.9137 66.6164C61.8536 66.8934 59.0946 66.9 55 66.9V73.1ZM75.1 44.8802C75.1 41.1008 75.174 38.1893 73.9205 35.6263L68.3509 38.3502C68.826 39.3218 68.9 40.4935 68.9 44.8802H75.1ZM63.5337 33.9078C66.9963 36.601 67.8757 37.3787 68.3509 38.3502L73.9205 35.6263C72.667 33.0633 70.3235 31.3342 67.3402 29.0139L63.5337 33.9078ZM24.1 44.8802C24.1 40.4935 24.174 39.3218 24.6491 38.3502L19.0795 35.6263C17.826 38.1893 17.9 41.1008 17.9 44.8802H24.1ZM25.6598 29.0139C22.6765 31.3342 20.333 33.0633 19.0795 35.6263L24.6491 38.3502C25.1243 37.3787 26.0037 36.601 29.4663 33.9078L25.6598 29.0139ZM51.1917 56.5412V70H57.3917V56.5412H51.1917ZM41.8083 70V56.5412H35.6083V70H41.8083ZM46.5 51.8493C49.091 51.8493 51.1917 53.9499 51.1917 56.5412H57.3917C57.3917 50.5259 52.5154 45.6493 46.5 45.6493V51.8493ZM46.5 45.6493C40.4846 45.6493 35.6083 50.5259 35.6083 56.5412H41.8083C41.8083 53.9499 43.909 51.8493 46.5 51.8493V45.6493ZM38.7084 66.9L38 66.9L38 73.1L38.7083 73.1L38.7084 66.9ZM54.2917 73.1L55 73.1L55 66.9L54.2916 66.9L54.2917 73.1Z" fill="#272727"/>
</svg>
