<svg width="92" height="92" viewBox="0 0 92 92" fill="none" xmlns="http://www.w3.org/2000/svg">
<path d="M92 46C92 71.4051 71.4051 92 46 92C20.5949 92 0 71.4051 0 46C0 20.5949 20.5949 0 46 0C71.4051 0 92 20.5949 92 46Z" fill="#F0F0F0"/>
<path fill-rule="evenodd" clip-rule="evenodd" d="M70.5754 23C66.4749 23 63.1508 26.3579 63.1508 30.5C63.1508 32.2553 63.7477 33.8698 64.7477 35.1475L57.4731 44.7909C56.5694 44.3956 55.5726 44.1765 54.5251 44.1765C52.9789 44.1765 51.5431 44.6539 50.3543 45.4708L45.2176 40.7028C45.6553 39.7466 45.8995 38.6815 45.8995 37.5588C45.8995 33.4167 42.5754 30.0588 38.4749 30.0588C34.3744 30.0588 31.0503 33.4167 31.0503 37.5588C31.0503 39.2107 31.5789 40.7378 32.4747 41.977L24.5904 53.3241C23.9052 53.1134 23.178 53 22.4246 53C18.3241 53 15 56.3579 15 60.5C15 64.6421 18.3241 68 22.4246 68C26.5251 68 29.8492 64.6421 29.8492 60.5C29.8492 58.7191 29.2347 57.0831 28.2082 55.7967L35.9725 44.6222C36.7544 44.9049 37.5968 45.0588 38.4749 45.0588C39.8746 45.0588 41.1839 44.6675 42.3014 43.9873L47.6173 48.9218C47.2838 49.7746 47.1005 50.7039 47.1005 51.6765C47.1005 55.8186 50.4246 59.1765 54.5251 59.1765C58.6256 59.1765 61.9497 55.8186 61.9497 51.6765C61.9497 50.1999 61.5273 48.823 60.7979 47.6623L68.3463 37.6561C69.0499 37.8795 69.7987 38 70.5754 38C74.6759 38 78 34.6421 78 30.5C78 26.3579 74.6759 23 70.5754 23ZM70.5754 27.4118C68.8869 27.4118 67.5182 28.7944 67.5182 30.5C67.5182 32.2056 68.8869 33.5882 70.5754 33.5882C72.2638 33.5882 73.6326 32.2056 73.6326 30.5C73.6326 28.7944 72.2638 27.4118 70.5754 27.4118ZM54.5251 48.5882C52.8367 48.5882 51.4679 49.9709 51.4679 51.6765C51.4679 53.3821 52.8367 54.7647 54.5251 54.7647C56.2136 54.7647 57.5823 53.3821 57.5823 51.6765C57.5823 49.9709 56.2136 48.5882 54.5251 48.5882ZM38.4749 34.4706C36.7864 34.4706 35.4177 35.8532 35.4177 37.5588C35.4177 39.2644 36.7864 40.6471 38.4749 40.6471C40.1633 40.6471 41.5321 39.2644 41.5321 37.5588C41.5321 35.8532 40.1633 34.4706 38.4749 34.4706ZM22.4246 57.4118C20.7362 57.4118 19.3674 58.7944 19.3674 60.5C19.3674 62.2056 20.7362 63.5882 22.4246 63.5882C24.1131 63.5882 25.4818 62.2056 25.4818 60.5C25.4818 58.7944 24.1131 57.4118 22.4246 57.4118Z" fill="#272727"/>
</svg>
