<svg width="92" height="92" viewBox="0 0 92 92" fill="none" xmlns="http://www.w3.org/2000/svg">
<circle cx="46" cy="46" r="46" fill="#F0F0F0"/>
<mask id="path-2-inside-1_218_3187" fill="white">
<path d="M69.7293 35.8984C69.7293 22.3051 58.3043 11.311 44.572 12.0337C32.1324 12.7565 22.2919 23.0278 22 35.4675C22 41.6804 24.3072 47.4624 28.3658 51.9517C34.9956 59.0542 34.1478 67.2824 34.1478 67.2824C34.1478 68.8669 35.4543 70.1734 37.0388 70.1734H54.6766C56.2611 70.1734 57.5676 68.8669 57.7066 67.2824C57.7066 67.2824 56.7337 59.2626 63.3496 52.1046C67.4082 47.7542 69.7293 41.9722 69.7293 35.8984ZM51.9385 64.5304H39.7908C39.4989 58.5955 36.8998 52.8135 32.7023 48.338C29.5194 44.8632 27.9349 40.3877 27.9349 35.7594C28.0739 26.2107 35.4543 18.4134 45.0029 17.8296C55.4133 17.2458 64.0863 25.6409 64.0863 35.8984C64.0863 40.3877 62.3489 44.8632 59.166 48.1851C54.8295 52.8135 52.2304 58.5955 51.9385 64.5304Z"/>
</mask>
<path d="M69.7293 35.8984C69.7293 22.3051 58.3043 11.311 44.572 12.0337C32.1324 12.7565 22.2919 23.0278 22 35.4675C22 41.6804 24.3072 47.4624 28.3658 51.9517C34.9956 59.0542 34.1478 67.2824 34.1478 67.2824C34.1478 68.8669 35.4543 70.1734 37.0388 70.1734H54.6766C56.2611 70.1734 57.5676 68.8669 57.7066 67.2824C57.7066 67.2824 56.7337 59.2626 63.3496 52.1046C67.4082 47.7542 69.7293 41.9722 69.7293 35.8984ZM51.9385 64.5304H39.7908C39.4989 58.5955 36.8998 52.8135 32.7023 48.338C29.5194 44.8632 27.9349 40.3877 27.9349 35.7594C28.0739 26.2107 35.4543 18.4134 45.0029 17.8296C55.4133 17.2458 64.0863 25.6409 64.0863 35.8984C64.0863 40.3877 62.3489 44.8632 59.166 48.1851C54.8295 52.8135 52.2304 58.5955 51.9385 64.5304Z" fill="black"/>
<path d="M44.572 12.0337L44.2567 6.042L44.2403 6.04286L44.224 6.04381L44.572 12.0337ZM22 35.4675L16.0017 35.3267L16 35.3971V35.4675H22ZM28.3658 51.9517L23.9149 55.9754L23.947 56.0109L23.9797 56.046L28.3658 51.9517ZM34.1478 67.2824L28.1794 66.6674L28.1478 66.9741V67.2824H34.1478ZM57.7066 67.2824L63.6837 67.8067L63.7385 67.1822L63.663 66.5598L57.7066 67.2824ZM63.3496 52.1046L58.9624 48.0117L58.9529 48.0219L58.9434 48.0321L63.3496 52.1046ZM51.9385 64.5304V70.5304H57.6507L57.9313 64.8251L51.9385 64.5304ZM39.7908 64.5304L33.798 64.8251L34.0786 70.5304H39.7908V64.5304ZM32.7023 48.338L28.2779 52.3907L28.3017 52.4168L28.3259 52.4425L32.7023 48.338ZM27.9349 35.7594L21.9355 35.672L21.9349 35.7157V35.7594H27.9349ZM45.0029 17.8296L44.667 11.839L44.6519 11.8399L44.6368 11.8408L45.0029 17.8296ZM59.166 48.1851L54.8337 44.0341L54.8105 44.0583L54.7876 44.0828L59.166 48.1851ZM75.7293 35.8984C75.7293 18.8928 61.447 5.13725 44.2567 6.042L44.8874 18.0254C55.1616 17.4847 63.7293 25.7174 63.7293 35.8984H75.7293ZM44.224 6.04381C28.6408 6.9492 16.3662 19.7882 16.0017 35.3267L27.9983 35.6082C28.2175 26.2675 35.624 18.5637 44.9201 18.0236L44.224 6.04381ZM16 35.4675C16 43.2006 18.8819 50.4081 23.9149 55.9754L32.8166 47.9281C29.7326 44.5166 28 40.1601 28 35.4675H16ZM23.9797 56.046C26.3872 58.625 27.4249 61.3834 27.8704 63.5104C28.0939 64.5778 28.1629 65.4658 28.1789 66.0496C28.1868 66.3396 28.1815 66.5479 28.1767 66.6581C28.1744 66.713 28.1722 66.7427 28.172 66.7451C28.172 66.7463 28.1724 66.7407 28.1735 66.7278C28.1741 66.7214 28.1748 66.7132 28.1758 66.7031C28.1763 66.6981 28.1768 66.6926 28.1774 66.6866C28.1777 66.6837 28.178 66.6806 28.1783 66.6774C28.1785 66.6758 28.1788 66.6733 28.1788 66.6725C28.1791 66.6699 28.1794 66.6674 34.1478 67.2824C40.1162 67.8974 40.1164 67.8948 40.1167 67.8921C40.1168 67.8912 40.1171 67.8885 40.1173 67.8867C40.1176 67.8829 40.118 67.8791 40.1184 67.8751C40.1192 67.8672 40.12 67.8587 40.1209 67.8497C40.1226 67.8317 40.1245 67.8115 40.1265 67.7893C40.1304 67.7449 40.1348 67.6921 40.1393 67.6313C40.1483 67.5098 40.1579 67.3558 40.1657 67.1718C40.1815 66.8042 40.1906 66.3143 40.1744 65.7219C40.1421 64.541 40.0087 62.928 39.6155 61.0505C38.8275 57.2879 36.9742 52.3809 32.7518 47.8575L23.9797 56.046ZM28.1478 67.2824C28.1478 72.1806 32.1406 76.1734 37.0388 76.1734V64.1734C38.768 64.1734 40.1478 65.5532 40.1478 67.2824H28.1478ZM37.0388 76.1734H54.6766V64.1734H37.0388V76.1734ZM54.6766 76.1734C59.6651 76.1734 63.2993 72.1886 63.6837 67.8067L51.7296 66.7581C51.836 65.5452 52.8572 64.1734 54.6766 64.1734V76.1734ZM57.7066 67.2824C63.663 66.5598 63.6633 66.5624 63.6636 66.565C63.6637 66.5659 63.664 66.5685 63.6642 66.5701C63.6646 66.5735 63.665 66.5767 63.6654 66.5798C63.6661 66.586 63.6668 66.5918 63.6674 66.5972C63.6686 66.6078 63.6696 66.6167 63.6703 66.6239C63.6718 66.6382 63.6725 66.6455 63.6726 66.6462C63.6727 66.6474 63.6704 66.6222 63.6675 66.5725C63.6616 66.4726 63.6535 66.2772 63.6574 66.0019C63.6652 65.4477 63.7211 64.5953 63.9291 63.5619C64.3421 61.5108 65.3411 58.7897 67.7558 56.1772L58.9434 48.0321C54.7422 52.5776 52.9198 57.4454 52.1652 61.1936C51.7894 63.0599 51.6751 64.6598 51.6586 65.833C51.6503 66.4214 51.6665 66.9084 51.688 67.2751C51.6988 67.4587 51.7109 67.6127 51.7221 67.735C51.7276 67.7961 51.733 67.8494 51.7378 67.8944C51.7402 67.917 51.7424 67.9375 51.7445 67.9559C51.7456 67.9651 51.7466 67.9738 51.7476 67.982C51.748 67.9861 51.7485 67.9901 51.749 67.9939C51.7492 67.9958 51.7495 67.9986 51.7496 67.9995C51.75 68.0023 51.7503 68.005 57.7066 67.2824ZM67.7369 56.1975C72.8233 50.7453 75.7293 43.5039 75.7293 35.8984H63.7293C63.7293 40.4406 61.993 44.7631 58.9624 48.0117L67.7369 56.1975ZM51.9385 58.5304H39.7908V70.5304H51.9385V58.5304ZM45.7835 64.2356C45.416 56.7626 42.1667 49.6584 37.0786 44.2334L28.3259 52.4425C31.6329 55.9685 33.5818 60.4284 33.798 64.8251L45.7835 64.2356ZM37.1267 44.2852C35.0384 42.0055 33.9349 39.012 33.9349 35.7594H21.9349C21.9349 41.7635 24.0004 47.721 28.2779 52.3907L37.1267 44.2852ZM33.9343 35.8467C34.0279 29.4113 38.9767 24.2092 45.369 23.8184L44.6368 11.8408C31.9319 12.6175 22.1198 23.0102 21.9355 35.672L33.9343 35.8467ZM45.3388 23.8202C52.2605 23.4321 58.0863 29.0379 58.0863 35.8984H70.0863C70.0863 22.2438 58.5661 11.0596 44.667 11.839L45.3388 23.8202ZM58.0863 35.8984C58.0863 38.875 56.923 41.8536 54.8337 44.0341L63.4983 52.3361C67.7748 47.8729 70.0863 41.9005 70.0863 35.8984H58.0863ZM54.7876 44.0828C49.5797 49.6412 46.3144 56.7395 45.9458 64.2356L57.9313 64.8251C58.1464 60.4515 60.0794 55.9858 63.5445 52.2874L54.7876 44.0828Z" fill="#272727" mask="url(#path-2-inside-1_218_3187)"/>
<mask id="path-4-inside-2_218_3187" fill="white">
<path d="M50.9239 74.218H40.6525C39.068 74.218 37.7615 75.5245 37.7615 77.109C37.7615 78.6935 39.068 80 40.6525 80H50.9239C52.5084 80 53.8149 78.6935 53.8149 77.109C53.8149 75.5245 52.5223 74.218 50.9239 74.218Z"/>
</mask>
<path d="M50.9239 74.218H40.6525C39.068 74.218 37.7615 75.5245 37.7615 77.109C37.7615 78.6935 39.068 80 40.6525 80H50.9239C52.5084 80 53.8149 78.6935 53.8149 77.109C53.8149 75.5245 52.5223 74.218 50.9239 74.218Z" fill="black"/>
<path d="M50.9239 68.218H40.6525V80.218H50.9239V68.218ZM40.6525 68.218C35.7543 68.218 31.7615 72.2108 31.7615 77.109H43.7615C43.7615 78.8382 42.3817 80.218 40.6525 80.218V68.218ZM31.7615 77.109C31.7615 82.0072 35.7543 86 40.6525 86V74C42.3817 74 43.7615 75.3798 43.7615 77.109H31.7615ZM40.6525 86H50.9239V74H40.6525V86ZM50.9239 86C55.8221 86 59.8149 82.0072 59.8149 77.109H47.8149C47.8149 75.3798 49.1946 74 50.9239 74V86ZM59.8149 77.109C59.8149 72.2296 55.8547 68.218 50.9239 68.218V80.218C49.1898 80.218 47.8149 78.8195 47.8149 77.109H59.8149Z" fill="#272727" mask="url(#path-4-inside-2_218_3187)"/>
</svg>
