<svg width="48" height="48" viewBox="0 0 48 48" fill="none" xmlns="http://www.w3.org/2000/svg">
<path d="M40.1717 7.93885C38.1232 5.89028 35.2303 5.56799 31.8146 5.56799H16.1452C12.7706 5.56799 9.87774 5.88942 7.82832 7.93885C5.77889 9.98828 5.47717 12.8606 5.47717 16.2154V31.7246C5.47717 35.16 5.77803 38.0126 7.82746 40.0611C9.87689 42.1097 12.7697 42.432 16.2043 42.432H31.8137C35.2295 42.432 38.1223 42.1106 40.1709 40.0611C42.2203 38.0126 42.5212 35.16 42.5212 31.7246V16.2754C42.5212 12.84 42.2212 9.96685 40.1717 7.93885ZM39.2872 15.7131V32.2671C39.2872 34.356 39.0257 36.4851 37.8215 37.7109C36.5957 38.916 34.4255 39.1971 32.3563 39.1971H15.642C13.5729 39.1971 11.4035 38.916 10.1983 37.7109C8.9726 36.4851 8.71117 34.356 8.71117 32.2663V15.774C8.71117 13.6654 8.9726 11.4951 10.1777 10.29C11.4035 9.06428 13.5926 8.80371 15.702 8.80371H32.3563C34.4255 8.80371 36.5949 9.08485 37.8206 10.29C39.0257 11.5157 39.2872 13.644 39.2872 15.7131ZM24 34.7177C24.804 34.7177 25.4469 34.0946 25.4469 33.2914V25.4366H33.3017C34.1049 25.4366 34.7477 24.7534 34.7477 24.0103C34.7477 23.2268 34.1049 22.5634 33.3017 22.5634H25.4469V14.6888C25.4469 13.8848 24.804 13.2626 24 13.2626C23.812 13.2598 23.6252 13.2948 23.451 13.3655C23.2767 13.4362 23.1183 13.5411 22.9853 13.6741C22.8523 13.8071 22.7474 13.9655 22.6767 14.1398C22.606 14.3141 22.571 14.5008 22.5737 14.6888V22.5634H14.7189C13.9149 22.5634 13.272 23.2268 13.272 24.0103C13.272 24.7534 13.9149 25.4366 14.7189 25.4366H22.5737V33.2914C22.5737 34.0946 23.1969 34.7177 24 34.7177Z" fill="white"/>
</svg>
