<svg width="337" height="110" viewBox="0 0 337 110" fill="none" xmlns="http://www.w3.org/2000/svg">
<g filter="url(#filter0_d_161_7)">
<path d="M12.2346 72.36C12.9346 70.82 13.7746 68.8367 14.7546 66.41C15.7346 63.9833 16.7613 61.37 17.8346 58.57C18.9079 55.7233 20.0046 52.83 21.1246 49.89C22.2446 46.9033 23.2946 44.08 24.2746 41.42C25.2546 38.76 26.0946 36.38 26.7946 34.28C27.5413 32.18 28.0779 30.57 28.4046 29.45C25.4646 30.6633 22.9446 32.5067 20.8446 34.98C18.7446 37.4533 17.1579 40.5567 16.0846 44.29C15.0113 43.9167 14.0313 43.2633 13.1446 42.33C12.2579 41.35 11.6746 40.1367 11.3946 38.69C11.8613 36.5433 12.7246 34.5833 13.9846 32.81C15.2913 31.0367 16.9246 29.52 18.8846 28.26C20.8446 27 23.1079 26.0433 25.6746 25.39C28.2413 24.69 30.9946 24.34 33.9346 24.34C37.6679 24.34 41.0979 24.9 44.2246 26.02C47.3513 27.0933 50.0346 28.61 52.2746 30.57C54.5146 32.53 56.2646 34.8867 57.5246 37.64C58.7846 40.3933 59.4146 43.45 59.4146 46.81C59.4146 51.3833 58.5746 55.7467 56.8946 59.9C55.2146 64.0533 52.9279 67.7167 50.0346 70.89C47.1879 74.0633 43.8746 76.5833 40.0946 78.45C36.3146 80.3633 32.3479 81.32 28.1946 81.32C24.3679 81.32 21.0779 80.55 18.3246 79.01C15.6179 77.5167 13.5879 75.3 12.2346 72.36ZM36.9446 27.84C34.6113 27.84 32.3946 28.1667 30.2946 28.82C32.3479 29.5667 34.0513 30.36 35.4046 31.2C36.7579 31.9933 37.6913 32.6233 38.2046 33.09C37.8313 33.6033 37.2713 34.5133 36.5246 35.82C35.8246 37.1267 34.9846 38.7133 34.0046 40.58C33.0713 42.4467 32.0679 44.5 30.9946 46.74C29.9213 48.9333 28.8713 51.1967 27.8446 53.53C25.1846 59.4567 23.2479 64.1233 22.0346 67.53C20.8679 70.9367 20.2846 73.2933 20.2846 74.6C20.9379 74.8333 21.7313 74.9967 22.6646 75.09C23.5979 75.1833 24.6013 75.23 25.6746 75.23C29.4546 75.23 33.0246 74.3667 36.3846 72.64C39.7913 70.8667 42.7546 68.51 45.2746 65.57C47.8413 62.63 49.8479 59.2233 51.2946 55.35C52.7879 51.43 53.5346 47.3233 53.5346 43.03C53.5346 38.2233 52.0413 34.49 49.0546 31.83C46.0679 29.17 42.0313 27.84 36.9446 27.84ZM85.5552 47.72C86.0219 47.72 86.5586 47.8133 87.1652 48C87.8186 48.14 88.4019 48.35 88.9152 48.63C89.4286 48.8633 89.8486 49.12 90.1752 49.4C90.5486 49.68 90.7352 49.9367 90.7352 50.17C89.8019 52.13 88.9386 54.1133 88.1452 56.12C87.3519 58.08 86.6752 59.97 86.1152 61.79C85.5552 63.61 85.1119 65.3133 84.7852 66.9C84.5052 68.4867 84.3652 69.8633 84.3652 71.03C84.3652 72.3367 84.5052 73.4333 84.7852 74.32C85.0652 75.16 85.5319 75.7667 86.1852 76.14C85.6252 76.5133 84.9019 76.8167 84.0152 77.05C83.1286 77.2833 82.3352 77.4 81.6352 77.4C79.1152 77.4 77.8552 75.6733 77.8552 72.22C77.8552 69.56 78.7419 65.92 80.5152 61.3C79.5819 63.4467 78.5086 65.4767 77.2952 67.39C76.0819 69.2567 74.8452 70.9133 73.5852 72.36C72.3252 73.8067 71.0419 74.9967 69.7352 75.93C68.4752 76.8167 67.3086 77.3533 66.2352 77.54C64.5086 77.4467 63.1086 76.63 62.0352 75.09C60.9619 73.5033 60.4252 71.4967 60.4252 69.07C60.4252 66.4567 60.9852 63.7033 62.1052 60.81C63.2252 57.9167 64.6486 55.2333 66.3752 52.76C68.1486 50.2867 70.0619 48.2333 72.1152 46.6C74.1686 44.92 76.1519 44.0333 78.0652 43.94C78.5319 44.08 79.0452 44.36 79.6052 44.78C80.2119 45.2 80.7719 45.69 81.2852 46.25C81.8452 46.81 82.3119 47.3933 82.6852 48C83.0586 48.56 83.2686 49.05 83.3152 49.47C81.4486 49.75 79.5119 50.66 77.5052 52.2C75.5452 53.74 73.7486 55.6067 72.1152 57.8C70.5286 59.9467 69.2219 62.2567 68.1952 64.73C67.1686 67.2033 66.6552 69.5133 66.6552 71.66C66.6552 72.5467 66.9819 73.1067 67.6352 73.34C68.9886 73.06 70.5519 71.9167 72.3252 69.91C74.0986 67.8567 76.2452 64.7067 78.7652 60.46C79.2319 59.62 79.7452 58.6867 80.3052 57.66C80.9119 56.6333 81.5186 55.56 82.1252 54.44C82.7319 53.32 83.3152 52.2 83.8752 51.08C84.4819 49.9133 85.0419 48.7933 85.5552 47.72ZM105.626 42.05C106.839 42.4233 107.983 43.2633 109.056 44.57C110.129 45.83 110.923 47.23 111.436 48.77C110.923 50.03 110.129 51.5467 109.056 53.32C107.983 55.0933 106.909 56.9133 105.836 58.78C104.763 60.6 103.783 62.35 102.896 64.03C102.056 65.6633 101.566 67.0167 101.426 68.09C102.173 67.2967 102.989 66.3867 103.876 65.36C104.809 64.2867 105.696 63.2367 106.536 62.21C107.423 61.1367 108.239 60.18 108.986 59.34C109.733 58.4533 110.316 57.8 110.736 57.38C111.623 56.4467 112.673 55.3733 113.886 54.16C115.099 52.9 116.359 51.7333 117.666 50.66C119.019 49.54 120.373 48.6067 121.726 47.86C123.079 47.0667 124.316 46.67 125.436 46.67C126.649 46.67 127.653 47.09 128.446 47.93C129.286 48.7233 129.939 49.5633 130.406 50.45C130.406 50.5433 130.219 50.6833 129.846 50.87C129.519 51.01 129.029 51.4533 128.376 52.2C127.723 53.04 126.976 54.2067 126.136 55.7C125.343 57.1467 124.549 58.7333 123.756 60.46C123.009 62.14 122.379 63.8667 121.866 65.64C121.353 67.4133 121.096 69.0233 121.096 70.47C121.096 71.6367 121.236 72.3833 121.516 72.71C121.843 73.0367 122.286 73.2 122.846 73.2C123.359 73.2 123.896 73.0833 124.456 72.85C125.016 72.6167 125.459 72.5 125.786 72.5C125.973 72.5933 126.113 72.8033 126.206 73.13C126.346 73.41 126.416 73.6667 126.416 73.9C126.043 74.2267 125.599 74.5533 125.086 74.88C124.573 75.2067 124.036 75.51 123.476 75.79C122.916 76.07 122.356 76.3033 121.796 76.49C121.283 76.6767 120.816 76.77 120.396 76.77C119.043 76.77 117.923 76.56 117.036 76.14C116.196 75.7667 115.519 75.2533 115.006 74.6C114.539 73.9467 114.213 73.1767 114.026 72.29C113.839 71.3567 113.746 70.3767 113.746 69.35C113.746 68.79 113.793 68.16 113.886 67.46C113.979 66.76 114.166 65.9433 114.446 65.01C114.726 64.03 115.123 62.8867 115.636 61.58C116.149 60.2267 116.803 58.6167 117.596 56.75C117.503 56.75 116.873 57.0767 115.706 57.73C114.539 58.3833 113.279 59.3867 111.926 60.74C109.733 62.84 107.749 64.9167 105.976 66.97C104.249 69.0233 102.476 71.31 100.656 73.83C99.6294 75.2767 98.7194 76.49 97.9261 77.47C97.1794 78.4967 96.5261 79.1733 95.9661 79.5C94.9861 78.94 94.2628 78.1467 93.7961 77.12C93.3294 76.14 92.9794 75.1133 92.7461 74.04C92.7461 73.1533 92.8628 72.0333 93.0961 70.68C93.3761 69.3267 93.7261 67.8333 94.1461 66.2C94.6128 64.52 95.1728 62.77 95.8261 60.95C96.4794 59.13 97.2028 57.31 97.9961 55.49C99.7694 51.3833 101.379 48.1633 102.826 45.83C104.319 43.4967 105.253 42.2367 105.626 42.05ZM132.509 63.68C132.509 61.02 133.045 58.4533 134.119 55.98C135.239 53.46 136.685 51.2433 138.459 49.33C140.279 47.37 142.332 45.8067 144.619 44.64C146.952 43.4267 149.355 42.82 151.829 42.82C154.255 42.82 156.122 43.4267 157.429 44.64C158.735 45.8533 159.389 47.58 159.389 49.82C159.389 50.8933 159.225 51.9433 158.899 52.97C158.619 53.95 158.222 54.8367 157.709 55.63C157.242 56.4233 156.682 57.0767 156.029 57.59C155.375 58.0567 154.722 58.29 154.069 58.29C153.509 58.29 152.925 58.1267 152.319 57.8C151.759 57.4267 151.292 56.96 150.919 56.4C154.045 53.5533 155.609 50.9633 155.609 48.63C155.609 47.2767 155.072 46.6 153.999 46.6C153.065 46.6 151.899 47.0433 150.499 47.93C149.099 48.8167 147.745 49.9833 146.439 51.43C144.432 53.67 142.892 56.1667 141.819 58.92C140.792 61.6267 140.279 64.4733 140.279 67.46C140.279 71.24 141.119 73.5033 142.799 74.25C143.499 74.1567 144.315 73.9467 145.249 73.62C146.182 73.2933 147.185 72.8733 148.259 72.36C149.332 71.8 150.429 71.17 151.549 70.47C152.715 69.77 153.835 69.0233 154.909 68.23C155.095 68.37 155.259 68.58 155.399 68.86C155.539 69.14 155.609 69.3967 155.609 69.63C154.815 70.61 153.905 71.5667 152.879 72.5C151.852 73.4333 150.779 74.2967 149.659 75.09C148.539 75.8367 147.442 76.4667 146.369 76.98C145.342 77.54 144.432 77.89 143.639 78.03C142.099 77.89 140.652 77.4 139.299 76.56C137.945 75.7667 136.755 74.7167 135.729 73.41C134.749 72.1033 133.955 70.61 133.349 68.93C132.789 67.25 132.509 65.5 132.509 63.68ZM186.543 47.02C186.357 49.9133 185.843 52.41 185.003 54.51C184.163 56.5633 182.95 58.3833 181.363 59.97C179.823 61.51 177.933 62.91 175.693 64.17C173.453 65.43 170.84 66.6433 167.853 67.81C167.853 68.09 167.83 68.3933 167.783 68.72C167.783 69 167.783 69.3033 167.783 69.63C167.783 70.2367 167.83 70.8667 167.923 71.52C168.017 72.1733 168.18 72.78 168.413 73.34C168.647 73.9 168.973 74.3667 169.393 74.74C169.813 75.0667 170.35 75.23 171.003 75.23C172.263 75.23 173.5 74.95 174.713 74.39C175.927 73.83 177.07 73.1533 178.143 72.36C179.263 71.52 180.29 70.6333 181.223 69.7C182.203 68.72 183.067 67.8333 183.813 67.04C184.28 67.46 184.677 67.8567 185.003 68.23C182.903 71.03 180.593 73.3633 178.073 75.23C175.6 77.05 173.243 78.2167 171.003 78.73C167.783 78.3567 165.263 77.19 163.443 75.23C161.67 73.2233 160.783 70.82 160.783 68.02C160.783 66.1067 161.04 64.17 161.553 62.21C162.113 60.2033 162.86 58.29 163.793 56.47C164.773 54.6033 165.893 52.8533 167.153 51.22C168.46 49.5867 169.837 48.1633 171.283 46.95C172.777 45.7367 174.293 44.78 175.833 44.08C177.42 43.38 178.983 43.03 180.523 43.03C182.67 43.31 184.677 44.64 186.543 47.02ZM181.713 49.33C180.453 49.5167 179.147 50.03 177.793 50.87C176.44 51.71 175.157 52.83 173.943 54.23C172.777 55.63 171.703 57.2633 170.723 59.13C169.743 60.9967 168.973 63.0033 168.413 65.15C172.147 63.2833 175.25 60.9967 177.723 58.29C180.197 55.5367 181.527 52.55 181.713 49.33ZM193.214 81.32C190.974 80.6667 189.411 80.0133 188.524 79.36C187.684 78.7067 187.264 77.89 187.264 76.91C187.264 76.1633 187.474 75.1133 187.894 73.76C188.314 72.4067 188.921 70.82 189.714 69C190.554 67.1333 191.534 65.08 192.654 62.84C193.821 60.6 195.127 58.1967 196.574 55.63C195.361 55.5833 194.264 55.56 193.284 55.56C192.351 55.5133 191.581 55.49 190.974 55.49C191.254 54.79 192.047 54.1833 193.354 53.67C194.661 53.1567 196.387 52.7133 198.534 52.34C200.354 49.3067 202.291 46.4133 204.344 43.66C206.444 40.9067 208.544 38.3867 210.644 36.1C212.744 33.7667 214.844 31.7367 216.944 30.01C219.044 28.2367 221.051 26.8367 222.964 25.81C223.011 25.4833 223.034 25.2033 223.034 24.97C223.081 24.7367 223.104 24.5733 223.104 24.48C223.757 24.48 224.621 24.6433 225.694 24.97C226.814 25.2967 227.887 25.6933 228.914 26.16C229.987 26.6267 230.921 27.1167 231.714 27.63C232.554 28.0967 233.021 28.4933 233.114 28.82C231.574 31.5267 230.057 35.5867 228.564 41C227.071 46.3667 225.834 52.8067 224.854 60.32C224.621 62.1867 224.411 64.31 224.224 66.69C224.084 69.07 224.014 71.73 224.014 74.67C224.014 75.6967 224.014 76.7467 224.014 77.82C224.014 78.8933 224.061 80.0133 224.154 81.18C224.061 81.2267 223.967 81.25 223.874 81.25C223.781 81.25 223.594 81.25 223.314 81.25C222.661 81.25 221.891 81.1333 221.004 80.9C220.164 80.7133 219.324 80.4567 218.484 80.13C217.691 79.85 216.991 79.5233 216.384 79.15C215.824 78.7767 215.474 78.45 215.334 78.17C215.287 77.5633 215.264 76.9567 215.264 76.35C215.264 75.79 215.264 75.1833 215.264 74.53C215.264 71.6367 215.357 68.6967 215.544 65.71C215.777 62.7233 216.151 59.6433 216.664 56.47C216.011 56.4233 215.147 56.3767 214.074 56.33C213.001 56.2367 211.787 56.1667 210.434 56.12C209.127 56.0733 207.704 56.0267 206.164 55.98C204.671 55.8867 203.201 55.8167 201.754 55.77C200.634 57.87 199.584 59.97 198.604 62.07C197.624 64.1233 196.784 66.2 196.084 68.3C195.291 70.54 194.637 72.78 194.124 75.02C193.657 77.26 193.354 79.36 193.214 81.32ZM220.234 39.25C220.421 38.5967 220.631 37.71 220.864 36.59C221.144 35.4233 221.401 34.21 221.634 32.95C220.467 33.37 219.161 34.14 217.714 35.26C216.314 36.38 214.844 37.78 213.304 39.46C211.811 41.0933 210.271 42.96 208.684 45.06C207.144 47.1133 205.651 49.3067 204.204 51.64C208.124 51.3133 212.581 51.1033 217.574 51.01C217.947 49.05 218.344 47.1133 218.764 45.2C219.231 43.24 219.721 41.2567 220.234 39.25ZM228.493 99.17C227.839 98.9833 227.466 98.2833 227.373 97.07C227.186 96.4633 227.046 95.74 226.953 94.9C226.906 94.06 226.883 93.1033 226.883 92.03C226.883 91.05 227.046 89.6967 227.373 87.97C227.699 86.29 228.143 84.3767 228.703 82.23C229.309 80.0833 230.033 77.7733 230.873 75.3C231.713 72.78 232.646 70.2367 233.673 67.67C234.933 64.45 236.029 61.6733 236.963 59.34C237.896 56.96 238.666 54.9067 239.273 53.18C239.926 51.4533 240.439 50.03 240.813 48.91C241.233 47.79 241.559 46.8333 241.793 46.04C241.979 45.48 242.259 44.8033 242.633 44.01C243.006 43.2167 243.426 42.4233 243.893 41.63C244.406 40.79 244.919 40.02 245.433 39.32C245.946 38.5733 246.413 38.0133 246.833 37.64C248.466 37.8733 250.006 38.2933 251.453 38.9C252.899 39.5067 253.786 40.09 254.113 40.65C253.459 41.2567 252.713 42.2133 251.873 43.52C251.033 44.78 250.216 46.18 249.423 47.72C248.629 49.2133 247.906 50.7533 247.253 52.34C246.599 53.9267 246.109 55.3267 245.783 56.54C246.249 55.7467 246.856 54.8833 247.603 53.95C248.349 53.0167 249.493 51.7333 251.033 50.1C252.759 48.3267 254.369 46.9733 255.863 46.04C257.403 45.06 258.733 44.57 259.853 44.57C261.626 44.57 263.073 45.06 264.193 46.04C265.359 47.02 265.943 48.28 265.943 49.82C265.943 53.18 265.383 56.5167 264.263 59.83C263.143 63.0967 261.533 66.06 259.433 68.72C258.639 69.7467 257.706 70.7267 256.633 71.66C255.559 72.5933 254.439 73.4333 253.273 74.18C252.106 74.88 250.963 75.44 249.843 75.86C248.723 76.28 247.719 76.49 246.833 76.49C245.993 76.49 245.246 76.3267 244.593 76C243.986 75.6267 243.566 75.1833 243.333 74.67C245.153 73.5967 246.926 72.1033 248.653 70.19C250.379 68.2767 251.966 66.0833 253.413 63.61C254.906 61.09 256.189 58.3833 257.263 55.49C258.383 52.5967 259.223 49.6567 259.783 46.67C258.009 47.6033 256.399 48.63 254.953 49.75C253.553 50.8233 252.153 52.2467 250.753 54.02C249.073 56.0733 247.743 57.73 246.763 58.99C245.783 60.25 244.966 61.3233 244.312 62.21C243.706 63.0967 243.193 63.9367 242.773 64.73C242.399 65.4767 241.979 66.41 241.513 67.53C240.859 69.0233 240.089 71.0067 239.203 73.48C238.363 75.9067 237.476 78.6367 236.543 81.67C235.656 84.7033 234.746 87.9233 233.813 91.33C232.926 94.7833 232.063 98.2133 231.223 101.62C230.709 101.527 230.266 101.153 229.893 100.5C229.519 100.08 229.239 99.7767 229.053 99.59C228.913 99.4033 228.726 99.2633 228.493 99.17ZM263.356 99.17C262.702 98.9833 262.329 98.2833 262.236 97.07C262.049 96.4633 261.909 95.74 261.816 94.9C261.769 94.06 261.746 93.1033 261.746 92.03C261.746 91.05 261.909 89.6967 262.236 87.97C262.562 86.29 263.006 84.3767 263.566 82.23C264.172 80.0833 264.896 77.7733 265.736 75.3C266.576 72.78 267.509 70.2367 268.536 67.67C269.796 64.45 270.892 61.6733 271.826 59.34C272.759 56.96 273.529 54.9067 274.136 53.18C274.789 51.4533 275.302 50.03 275.676 48.91C276.096 47.79 276.422 46.8333 276.656 46.04C276.842 45.48 277.122 44.8033 277.496 44.01C277.869 43.2167 278.289 42.4233 278.756 41.63C279.269 40.79 279.782 40.02 280.296 39.32C280.809 38.5733 281.276 38.0133 281.696 37.64C283.329 37.8733 284.869 38.2933 286.316 38.9C287.762 39.5067 288.649 40.09 288.976 40.65C288.322 41.2567 287.576 42.2133 286.736 43.52C285.896 44.78 285.079 46.18 284.286 47.72C283.492 49.2133 282.769 50.7533 282.116 52.34C281.462 53.9267 280.972 55.3267 280.646 56.54C281.112 55.7467 281.719 54.8833 282.466 53.95C283.212 53.0167 284.356 51.7333 285.896 50.1C287.622 48.3267 289.232 46.9733 290.726 46.04C292.266 45.06 293.596 44.57 294.716 44.57C296.489 44.57 297.936 45.06 299.056 46.04C300.222 47.02 300.806 48.28 300.806 49.82C300.806 53.18 300.246 56.5167 299.126 59.83C298.006 63.0967 296.396 66.06 294.296 68.72C293.502 69.7467 292.569 70.7267 291.496 71.66C290.422 72.5933 289.302 73.4333 288.136 74.18C286.969 74.88 285.826 75.44 284.706 75.86C283.586 76.28 282.582 76.49 281.696 76.49C280.856 76.49 280.109 76.3267 279.456 76C278.849 75.6267 278.429 75.1833 278.196 74.67C280.016 73.5967 281.789 72.1033 283.516 70.19C285.242 68.2767 286.829 66.0833 288.276 63.61C289.769 61.09 291.052 58.3833 292.126 55.49C293.246 52.5967 294.086 49.6567 294.646 46.67C292.872 47.6033 291.262 48.63 289.816 49.75C288.416 50.8233 287.016 52.2467 285.616 54.02C283.936 56.0733 282.606 57.73 281.626 58.99C280.646 60.25 279.829 61.3233 279.176 62.21C278.569 63.0967 278.056 63.9367 277.636 64.73C277.262 65.4767 276.842 66.41 276.376 67.53C275.722 69.0233 274.952 71.0067 274.066 73.48C273.226 75.9067 272.339 78.6367 271.406 81.67C270.519 84.7033 269.609 87.9233 268.676 91.33C267.789 94.7833 266.926 98.2133 266.086 101.62C265.572 101.527 265.129 101.153 264.756 100.5C264.382 100.08 264.102 99.7767 263.916 99.59C263.776 99.4033 263.589 99.2633 263.356 99.17ZM306.549 62.84C306.549 61.58 306.876 59.76 307.529 57.38C308.229 54.9533 309.116 52.2933 310.189 49.4C311.262 46.46 312.476 43.45 313.829 40.37C315.182 37.2433 316.536 34.3267 317.889 31.62C319.289 28.9133 320.619 26.58 321.879 24.62C323.139 22.6133 324.236 21.2833 325.169 20.63C325.916 20.77 326.709 21.12 327.549 21.68C328.436 22.1933 329.252 22.8 329.999 23.5C330.746 24.1533 331.399 24.8533 331.959 25.6C332.519 26.3467 332.846 27 332.939 27.56C330.559 29.52 328.202 31.97 325.869 34.91C323.536 37.8033 321.366 41.0233 319.359 44.57C317.399 48.1167 315.672 51.92 314.179 55.98C312.686 59.9933 311.566 64.1 310.819 68.3C310.259 68.16 309.699 67.9967 309.139 67.81C308.626 67.5767 308.182 67.2733 307.809 66.9C307.436 66.5267 307.132 66.0133 306.899 65.36C306.666 64.7067 306.549 63.8667 306.549 62.84ZM305.009 81.39C304.449 81.39 303.912 81.25 303.399 80.97C302.886 80.7367 302.419 80.4333 301.999 80.06C301.626 79.7333 301.322 79.36 301.089 78.94C300.856 78.5667 300.739 78.2633 300.739 78.03C300.739 77.47 300.809 76.7467 300.949 75.86C301.089 74.9733 301.299 74.1333 301.579 73.34C301.859 72.5 302.209 71.8 302.629 71.24C303.049 70.6333 303.516 70.33 304.029 70.33C305.336 70.33 306.642 70.7967 307.949 71.73C309.302 72.6167 310.306 73.62 310.959 74.74C310.399 75.3467 309.909 76.0233 309.489 76.77C309.069 77.5633 308.649 78.2867 308.229 78.94C307.809 79.64 307.342 80.2233 306.829 80.69C306.316 81.1567 305.709 81.39 305.009 81.39Z" fill="url(#paint0_linear_161_7)"/>
</g>
<defs>
<filter id="filter0_d_161_7" x="-4" y="0" width="340.939" height="110" filterUnits="userSpaceOnUse" color-interpolation-filters="sRGB">
<feFlood flood-opacity="0" result="BackgroundImageFix"/>
<feColorMatrix in="SourceAlpha" type="matrix" values="0 0 0 0 0 0 0 0 0 0 0 0 0 0 0 0 0 0 127 0" result="hardAlpha"/>
<feOffset dy="4"/>
<feGaussianBlur stdDeviation="2"/>
<feComposite in2="hardAlpha" operator="out"/>
<feColorMatrix type="matrix" values="0 0 0 0 0 0 0 0 0 0 0 0 0 0 0 0 0 0 0.25 0"/>
<feBlend mode="normal" in2="BackgroundImageFix" result="effect1_dropShadow_161_7"/>
<feBlend mode="normal" in="SourceGraphic" in2="effect1_dropShadow_161_7" result="shape"/>
</filter>
<linearGradient id="paint0_linear_161_7" x1="0" y1="51" x2="318" y2="51" gradientUnits="userSpaceOnUse">
<stop stop-color="#FEA178"/>
<stop offset="1" stop-color="#A92F9C"/>
</linearGradient>
</defs>
</svg>
