<svg width="48" height="48" viewBox="0 0 48 48" fill="none" xmlns="http://www.w3.org/2000/svg">
<path d="M22.166 10.208C22.866 8.608 25.136 8.608 25.834 10.208L29.338 18.252C29.4833 18.5848 29.7164 18.8717 30.0124 19.0821C30.3084 19.2924 30.656 19.4182 31.018 19.446L39.944 20.13C41.744 20.268 42.454 22.53 41.056 23.672L34.396 29.118C34.1027 29.358 33.8836 29.6765 33.7643 30.0362C33.6449 30.396 33.6303 30.7822 33.722 31.15L35.782 39.388C36.21 41.104 34.362 42.492 32.834 41.6L25.008 37.038C24.7021 36.8595 24.3543 36.7654 24 36.7654C23.6458 36.7654 23.298 36.8595 22.992 37.038L15.166 41.6C13.638 42.492 11.79 41.104 12.218 39.388L14.278 31.15C14.3689 30.7822 14.3535 30.3961 14.2334 30.0367C14.1134 29.6773 13.8937 29.3594 13.6 29.12L6.94004 23.674C5.54404 22.532 6.25604 20.27 8.05404 20.132L16.978 19.448C17.3401 19.4202 17.6877 19.2944 17.9837 19.0841C18.2797 18.8737 18.5128 18.5868 18.658 18.254L22.166 10.208Z" stroke="white" stroke-width="4"/>
</svg>
