<svg width="34" height="32" viewBox="0 0 34 32" fill="none" xmlns="http://www.w3.org/2000/svg">
<path fill-rule="evenodd" clip-rule="evenodd" d="M18.0481 0.960334C17.8582 0.592347 17.4663 0.359375 17.0371 0.359375C16.608 0.359375 16.2161 0.592347 16.0262 0.960334L11.4292 9.8679L1.14984 11.2963C0.725184 11.3553 0.372384 11.6397 0.23978 12.03C0.107175 12.4203 0.217765 12.8487 0.525049 13.1352L7.96323 20.0687L6.20732 29.8591C6.13478 30.2636 6.30864 30.6723 6.6558 30.9135C7.00296 31.1547 7.46322 31.1865 7.84304 30.9956L17.0371 26.3732L26.2312 30.9956C26.6111 31.1865 27.0713 31.1547 27.4185 30.9135C27.7657 30.6723 27.9395 30.2636 27.867 29.8591L26.1111 20.0687L33.5492 13.1352C33.8565 12.8487 33.9671 12.4203 33.8345 12.03C33.7019 11.6397 33.3491 11.3553 32.9244 11.2963L22.6451 9.8679L18.0481 0.960334Z" fill="#FDDE3B"/>
</svg>
