<svg width="20" height="20" viewBox="0 0 20 20" fill="none" xmlns="http://www.w3.org/2000/svg">
<path fill-rule="evenodd" clip-rule="evenodd" d="M10 0C10.2546 0 10.4872 0.151477 10.5999 0.39074L13.3277 6.18238L19.4272 7.11112C19.6792 7.14949 19.8886 7.33443 19.9672 7.58818C20.0459 7.84194 19.9803 8.1205 19.798 8.30674L15.3843 12.8149L16.4262 19.1805C16.4693 19.4435 16.3661 19.7093 16.1601 19.8661C15.9541 20.023 15.681 20.0436 15.4556 19.9195L10 16.914L4.54439 19.9195C4.31901 20.0436 4.04591 20.023 3.83991 19.8661C3.63391 19.7093 3.53074 19.4435 3.57378 19.1805L4.61571 12.8149L0.202034 8.30674C0.0196969 8.1205 -0.0459248 7.84194 0.0327601 7.58818C0.111445 7.33443 0.32079 7.14949 0.572773 7.11112L6.67233 6.18238L9.40013 0.39074C9.51282 0.151477 9.74537 0 10 0ZM10 2.28482L7.71642 7.13329C7.61898 7.34017 7.43063 7.48357 7.21275 7.51674L2.10651 8.29423L5.80142 12.0682C5.95908 12.2293 6.03102 12.4613 5.9938 12.6887L5.12155 18.0177L9.68871 15.5017C9.88359 15.3943 10.1164 15.3943 10.3113 15.5017L14.8784 18.0177L14.0062 12.6887C13.969 12.4613 14.0409 12.2293 14.1986 12.0682L17.8935 8.29423L12.7873 7.51674C12.5694 7.48357 12.381 7.34017 12.2836 7.13329L10 2.28482Z" fill="#0F140F"/>
</svg>
