<svg width="20" height="20" viewBox="0 0 20 20" fill="none" xmlns="http://www.w3.org/2000/svg">
<path fill-rule="evenodd" clip-rule="evenodd" d="M1.66667 1.5C1.53517 1.5 1.42857 1.61193 1.42857 1.75V14.25C1.42857 14.3881 1.53517 14.5 1.66667 14.5H4.04762C4.44211 14.5 4.7619 14.8358 4.7619 15.25V18.4393L8.30445 14.7197C8.4384 14.579 8.62008 14.5 8.80952 14.5H18.3333C18.4648 14.5 18.5714 14.3881 18.5714 14.25V1.75C18.5714 1.61193 18.4648 1.5 18.3333 1.5H1.66667ZM0 1.75C0 0.783502 0.746192 0 1.66667 0H18.3333C19.2538 0 20 0.783501 20 1.75V14.25C20 15.2165 19.2538 16 18.3333 16H9.10539L5.70232 19.5732C5.44207 19.8465 5.0891 20 4.72105 20C3.95464 20 3.33333 19.3476 3.33333 18.5429V16H1.66667C0.746193 16 0 15.2165 0 14.25V1.75Z" fill="#0F140F"/>
</svg>
