<svg width="20" height="20" viewBox="0 0 20 20" fill="none" xmlns="http://www.w3.org/2000/svg">
<path fill-rule="evenodd" clip-rule="evenodd" d="M17.3978 0C14.9616 0 12.6175 0.930367 10.8444 2.60094L9.68479 3.69354C9.20581 4.14484 8.74856 4.61794 8.31444 5.11119H3.83681C3.29037 5.11119 2.784 5.39788 2.50286 5.86642L0.0950106 9.87928C-0.0159252 10.0642 -0.030593 10.2913 0.05564 10.4889C0.141873 10.6865 0.318359 10.8302 0.529354 10.8746L4.59328 11.7302C4.62766 11.7739 4.66571 11.8156 4.70737 11.8547L6.48166 13.5197L8.1457 15.2928C8.18481 15.3345 8.2265 15.3726 8.2703 15.4069L9.12587 19.4707C9.17029 19.6817 9.31401 19.8581 9.51164 19.9444C9.70926 20.0306 9.93639 20.0159 10.1213 19.905L14.1344 17.4973C14.6029 17.2162 14.8896 16.7098 14.8896 16.1634V11.6857C15.3831 11.2514 15.8564 10.7939 16.3079 10.3147L17.3996 9.15588C19.0705 7.38231 20.0007 5.03746 20 2.60084L19.9997 1.55509C19.9994 0.696164 19.303 0 18.4441 0H17.3978ZM13.5562 12.7663C13.2605 12.9867 12.9589 13.1994 12.6517 13.4042L9.63471 15.4154L10.2378 18.2801L13.4483 16.354C13.5153 16.3138 13.5562 16.2415 13.5562 16.1634V12.7663ZM4.58476 10.3658L6.59675 7.348C6.80132 7.04115 7.01379 6.7399 7.23389 6.44452H3.83681C3.75875 6.44452 3.68641 6.48547 3.64624 6.55241L1.71995 9.76272L4.58476 10.3658ZM11.7588 3.57134C13.2845 2.13387 15.3016 1.33333 17.3978 1.33333H18.4441C18.5668 1.33333 18.6663 1.43278 18.6663 1.55548L18.6666 2.60123C18.6672 4.69786 17.8668 6.71552 16.4291 8.24162L15.3374 9.40038C14.309 10.4919 13.1599 11.463 11.9121 12.2948L8.98926 14.2432L7.43949 12.5918C7.42983 12.5816 7.41985 12.5716 7.40956 12.5619L5.75703 11.0112L7.7062 8.0876C8.53768 6.84045 9.50825 5.69185 10.5992 4.66394L11.7588 3.57134ZM14.8896 6.44441C14.8896 7.18079 14.2927 7.77774 13.5562 7.77774C12.8198 7.77774 12.2228 7.18079 12.2228 6.44441C12.2228 5.70803 12.8198 5.11108 13.5562 5.11108C14.2927 5.11108 14.8896 5.70803 14.8896 6.44441ZM5.11134 17.9999C5.91123 17.2001 5.91126 15.6887 5.11136 14.8889C4.31146 14.089 2.79997 14.089 2.00007 14.8888C0.925532 15.9633 0.71557 18.3566 0.675722 19.105C0.669049 19.2304 0.769558 19.3309 0.894916 19.3242C1.64342 19.2843 4.03697 19.0742 5.11134 17.9999Z" fill="#0F140F"/>
</svg>
