<svg width="22" height="22" viewBox="0 0 22 22" fill="none" xmlns="http://www.w3.org/2000/svg">
<path d="M2.38045 7C3.89083 3.75092 7.18339 1.5 11 1.5C15.4465 1.5 19.1811 4.55546 20.2155 8.68234C20.3162 9.08412 20.7235 9.3282 21.1253 9.2275C21.5271 9.1268 21.7712 8.71945 21.6705 8.31766C20.4729 3.53939 16.1507 0 11 0C6.94757 0 3.40828 2.19117 1.5 5.45159V3.75C1.5 3.33579 1.16421 3 0.75 3C0.335786 3 0 3.33579 0 3.75V7.5C0 8.05228 0.447715 8.5 1 8.5H4.75C5.16421 8.5 5.5 8.16421 5.5 7.75C5.5 7.33579 5.16421 7 4.75 7H2.38045Z" fill="#FDFDFD"/>
<path d="M1.78456 13.3177C1.68386 12.9159 1.27651 12.6718 0.874725 12.7725C0.472939 12.8732 0.228863 13.2806 0.329565 13.6823C1.52717 18.4606 5.84932 22 11 22C15.0524 22 18.5917 19.8089 20.5 16.5485V18.25C20.5 18.6642 20.8358 19 21.25 19C21.6642 19 22 18.6642 22 18.25V14.5C22 13.9477 21.5523 13.5 21 13.5H17.25C16.8358 13.5 16.5 13.8358 16.5 14.25C16.5 14.6642 16.8358 15 17.25 15H19.6196C18.1092 18.2491 14.8166 20.5 11 20.5C6.55358 20.5 2.8189 17.4445 1.78456 13.3177Z" fill="#FDFDFD"/>
</svg>
